<?xml version="1.0" standalone="no"?>
<!DOCTYPE svg PUBLIC "-//W3C//DTD SVG 1.1//EN" "http://www.w3.org/Graphics/SVG/1.1/DTD/svg11.dtd" >
<svg xmlns="http://www.w3.org/2000/svg" xmlns:xlink="http://www.w3.org/1999/xlink" version="1.1">
<metadata>
Created by FontForge 20170731 at Thu Dec 23 10:20:52 2021
 By Aleksey,,,
(c) 1990, 1992 Adobe Systems Incorporated. All rights reserved.
</metadata>
<defs>
<font id="DINNeuzeitGroteskStd-BdCond" horiz-adv-x="835" >
  <font-face 
    font-family="DIN Neuzeit Grotesk Std Bold Cn"
    font-weight="700"
    font-stretch="condensed"
    units-per-em="2048"
    panose-1="2 11 7 6 2 2 3 3 2 4"
    ascent="1556"
    descent="-492"
    x-height="1102"
    cap-height="1507"
    bbox="-336 -512 2048 1913"
    underline-thickness="102"
    underline-position="-307"
    unicode-range="U+0020-FB02"
  />
<missing-glyph horiz-adv-x="1024" 
d="M0 0v1434h1024v-1434h-1024zM512 809l348 522h-696zM573 717l349 -522v1044zM164 102h696l-348 523zM102 1239v-1044l349 522z" />
    <glyph glyph-name="f_i" unicode="fi" horiz-adv-x="948" 
d="M602 0v1102h199v-1102h-199zM573 1356q0 52 37.5 89.5t89.5 37.5q54 0 91.5 -37t37.5 -90q0 -54 -37.5 -91.5t-91.5 -37.5q-53 0 -90 37.5t-37 91.5zM147 0v924h-106v178h106v164q0 66 8 110t30.5 80t65 53t107.5 17q58 0 95 -6v-189q-12 6 -37 6q-31 0 -50.5 -21.5
t-19.5 -64.5v-149h107v-178h-107v-924h-199z" />
    <glyph glyph-name="f_l" unicode="fl" horiz-adv-x="948" 
d="M602 260v1247h199v-1204q0 -67 30 -100t99 -33h20v-188h-73q-131 0 -203 65t-72 213zM147 0v924h-106v178h106v164q0 66 8 110t30.5 80t65 53t107.5 17q58 0 95 -6v-189q-12 6 -37 6q-31 0 -50.5 -21.5t-19.5 -64.5v-149h107v-178h-107v-924h-199z" />
    <glyph glyph-name=".notdef" horiz-adv-x="1024" 
d="M0 0v1434h1024v-1434h-1024zM512 809l348 522h-696zM573 717l349 -522v1044zM164 102h696l-348 523zM102 1239v-1044l349 522z" />
    <glyph glyph-name=".null" horiz-adv-x="0" 
 />
    <glyph glyph-name="nonmarkingreturn" horiz-adv-x="682" 
 />
    <glyph glyph-name="space" unicode=" " horiz-adv-x="491" 
 />
    <glyph glyph-name="exclam" unicode="!" horiz-adv-x="491" 
d="M131 1507h229l-38 -1118h-152zM123 111q0 51 36 86.5t87 35.5t87 -35.5t36 -86.5t-36 -87t-87 -36t-87 36t-36 87z" />
    <glyph glyph-name="quotedbl" unicode="&#x22;" horiz-adv-x="720" 
d="M145 1090v417h152v-417h-152zM424 1090v417h151v-417h-151z" />
    <glyph glyph-name="numbersign" unicode="#" 
d="M336 868l-33 -297h197l32 297h-196zM111 0l49 442h-160v129h174l35 297h-160v129h174l51 443h127l-51 -443h197l51 443h127l-49 -443h160v-129h-174l-35 -297h159v-129h-174l-51 -442h-127l51 442h-196l-51 -442h-127z" />
    <glyph glyph-name="dollar" unicode="$" 
d="M371 1581h96v-117q152 -3 237 -71t117 -215l-180 -64q-14 99 -56 138t-118 44v-465q87 -53 147 -99.5t112 -104.5t77.5 -126t25.5 -147q0 -102 -44 -187t-127.5 -137t-190.5 -55v-143h-96v143q-154 3 -249.5 83.5t-115.5 240.5l191 45q20 -100 57.5 -147t116.5 -54v498
q-178 105 -260 210t-82 251q0 158 94 258.5t248 103.5v117zM371 887v409q-154 -20 -154 -168q0 -64 34.5 -120.5t119.5 -120.5zM467 586v-443q80 18 127 68.5t47 126.5q0 67 -39.5 121t-134.5 127z" />
    <glyph glyph-name="percent" unicode="%" horiz-adv-x="1593" 
d="M424 1325q-48 0 -68 -46t-20 -146t20 -146.5t68 -46.5t68 46.5t20 146.5t-20 146t-68 46zM424 1464q131 0 193.5 -90.5t62.5 -240.5t-62.5 -241t-193.5 -91t-193.5 91t-62.5 241t62.5 240.5t193.5 90.5zM1169 500q-48 0 -68 -46.5t-20 -146.5t20 -146t68 -46t68 46
t20 146t-20 146.5t-68 46.5zM1169 639q131 0 193.5 -91t62.5 -241t-62.5 -241t-193.5 -91t-193.5 91t-62.5 241t62.5 241t193.5 91zM1174 1481h131l-883 -1522h-131z" />
    <glyph glyph-name="ampersand" unicode="&#x26;" horiz-adv-x="1062" 
d="M643 240l-188 389q-174 -117 -174 -264q0 -84 53.5 -144.5t132.5 -60.5q106 0 176 80zM457 1108q0 -36 19 -95t52 -106q97 102 97 201q0 52 -23.5 80.5t-60.5 28.5t-60.5 -28.5t-23.5 -80.5zM602 750l186 -365l99 141l143 -116l-149 -201l108 -209h-209l-43 94
q-106 -112 -295 -112q-171 0 -265.5 106t-94.5 262q0 227 287 443q-56 109 -78.5 182t-22.5 145q0 120 75.5 197.5t195.5 77.5q109 0 191.5 -73.5t82.5 -201.5q0 -208 -211 -370z" />
    <glyph glyph-name="quotesingle" unicode="'" horiz-adv-x="491" 
d="M170 1090v417h152v-417h-152z" />
    <glyph glyph-name="parenleft" unicode="(" horiz-adv-x="606" 
d="M381 1595l176 -88q-209 -400 -209 -884q0 -485 209 -885l-176 -88q-231 429 -231 973q0 543 231 972z" />
    <glyph glyph-name="parenright" unicode=")" horiz-adv-x="606" 
d="M225 -350l-176 88q209 400 209 885q0 484 -209 884l176 88q232 -431 232 -972q0 -542 -232 -973z" />
    <glyph glyph-name="asterisk" unicode="*" horiz-adv-x="720" 
d="M410 1290l204 76l35 -111l-209 -59l133 -170l-92 -68l-121 181l-120 -181l-93 68l134 170l-209 59l34 111l205 -76l-8 217h115z" />
    <glyph glyph-name="plus" unicode="+" horiz-adv-x="1228" 
d="M539 594v442h151v-442h443v-152h-443v-442h-151v442h-443v152h443z" />
    <glyph glyph-name="comma" unicode="," horiz-adv-x="491" 
d="M158 260h219l-180 -436h-168z" />
    <glyph glyph-name="hyphen" unicode="-" horiz-adv-x="606" 
d="M104 670h398v-178h-398v178z" />
    <glyph glyph-name="period" unicode="." horiz-adv-x="491" 
d="M123 111q0 51 36 86.5t87 35.5t87 -35.5t36 -86.5t-36 -87t-87 -36t-87 36t-36 87z" />
    <glyph glyph-name="slash" unicode="/" horiz-adv-x="606" 
d="M422 1538h151l-389 -1569h-151z" />
    <glyph glyph-name="zero" unicode="0" 
d="M418 1276q-30 0 -51 -10t-36 -37t-24.5 -64t-14.5 -101t-7 -137.5t-2 -183.5q0 -326 27 -452.5t108 -126.5q23 0 40.5 6t31.5 22t24 37t17 57.5t11 76.5t6.5 101.5t3.5 125t1 153.5q0 110 -2 183.5t-7 137.5t-14.5 101t-24.5 64t-36 37t-51 10zM418 -25q-63 0 -113 19.5
t-86 53t-62 87.5t-42 114.5t-25 143.5t-12.5 164t-3.5 186q0 91 2 156.5t10 146t22 136.5t39.5 113t61.5 91.5t89 56t120 21.5t120 -21.5t89 -56t61.5 -91.5t39.5 -113t22 -136.5t10 -146t2 -156.5q0 -105 -3.5 -186t-12.5 -164t-25 -143.5t-42 -114.5t-62 -87.5t-86 -53
t-113 -19.5z" />
    <glyph glyph-name="one" unicode="1" horiz-adv-x="606" 
d="M438 0h-209v1153q-27 -28 -87.5 -65.5t-100.5 -51.5v189q92 41 188 106t170 133h39v-1464z" />
    <glyph glyph-name="two" unicode="2" 
d="M760 188v-188h-703l344 668q49 95 76 152.5t54.5 142t27.5 143.5q0 69 -34.5 119.5t-94.5 50.5q-73 0 -105 -64t-38 -192h-209q0 95 18.5 172t58.5 140t112 97.5t171 34.5q82 0 148.5 -30t107.5 -80t62.5 -111t21.5 -127q0 -63 -17.5 -133.5t-55.5 -154.5t-65.5 -137
t-78.5 -146l-194 -357h393z" />
    <glyph glyph-name="three" unicode="3" 
d="M143 766l303 485h-342v189h652v-25l-332 -528q25 6 72 6q266 0 266 -463q0 -201 -98 -328t-265 -127q-163 0 -244 111t-81 309h209q0 -113 29.5 -172t103.5 -59q137 0 137 293q0 131 -40 207.5t-122 76.5q-76 0 -125 -69z" />
    <glyph glyph-name="four" unicode="4" 
d="M190 451h252v616h-4zM453 1440h188v-989h154v-179h-154v-272h-199v272h-417v144z" />
    <glyph glyph-name="five" unicode="5" 
d="M715 1440v-189h-412l-8 -356l4 -4q65 104 197 104q48 0 92.5 -24.5t84.5 -76t64.5 -146t24.5 -220.5q0 -56 -3 -104t-12 -106t-24 -105t-41 -92.5t-61.5 -76.5t-87 -50t-115.5 -19q-79 0 -140.5 24t-99 62t-62 90.5t-33.5 105t-9 110.5v49h198q0 -68 10.5 -123.5
t41.5 -97t79 -41.5q43 0 73.5 26t46.5 76t23 111t7 143q0 307 -143 307q-48 0 -84.5 -36.5t-40.5 -116.5h-179l9 776h600z" />
    <glyph glyph-name="six" unicode="6" 
d="M430 1440h246q-117 -163 -297 -508h4q50 26 111 26q40 0 76 -14t72 -49.5t62 -90t42 -142t16 -199.5q0 -71 -11 -137.5t-37 -131t-65 -112.5t-100 -77.5t-137 -29.5q-176 0 -263.5 131.5t-87.5 362.5q0 201 78.5 409.5t290.5 561.5zM422 780q-42 0 -72 -25t-47 -69
t-25 -97t-8 -116q0 -54 7 -106t22.5 -102t46 -80.5t72.5 -30.5q135 0 135 319q0 307 -131 307z" />
    <glyph glyph-name="seven" unicode="7" 
d="M94 1251v189h690l-471 -1440h-209l412 1251h-422z" />
    <glyph glyph-name="eight" unicode="8" 
d="M283 424q0 -260 135 -260t135 260q0 254 -135 254t-135 -254zM74 403q0 148 43 240.5t143 136.5q-93 45 -126.5 116t-33.5 187q0 169 83 275t235 106t234.5 -106t82.5 -275q0 -116 -33.5 -187t-126.5 -116q100 -44 143.5 -137t43.5 -240q0 -64 -10.5 -123.5t-36 -115.5
t-64 -97.5t-98.5 -66.5t-135 -25t-135 25t-98.5 66.5t-64 97.5t-36 115.5t-10.5 123.5zM299 1077q0 -221 119 -221t119 221q0 97 -29 153t-90 56t-90 -56t-29 -153z" />
    <glyph glyph-name="nine" unicode="9" 
d="M406 0h-246q117 163 297 508h-4q-52 -27 -111 -27q-40 0 -76 14t-72 49.5t-62 90t-42 142.5t-16 200q0 71 11 137.5t37 131t65 112t100 77t137 29.5q176 0 263 -131t87 -362q0 -202 -78.5 -410.5t-289.5 -560.5zM414 659q55 0 90 45t48 111t13 152q0 54 -7 106t-22.5 102
t-45.5 80.5t-72 30.5q-135 0 -135 -319q0 -308 131 -308z" />
    <glyph glyph-name="colon" unicode=":" horiz-adv-x="491" 
d="M123 967q0 51 36 87t87 36t87 -36t36 -87t-36 -87t-87 -36t-87 36t-36 87zM123 111q0 51 36 86.5t87 35.5t87 -35.5t36 -86.5t-36 -87t-87 -36t-87 36t-36 87z" />
    <glyph glyph-name="semicolon" unicode=";" horiz-adv-x="491" 
d="M158 260h219l-180 -436h-168zM123 967q0 51 36 87t87 36t87 -36t36 -87t-36 -87t-87 -36t-87 36t-36 87z" />
    <glyph glyph-name="less" unicode="&#x3c;" horiz-adv-x="1228" 
d="M1133 135v-151l-1037 465v139l1037 465v-152l-848 -383z" />
    <glyph glyph-name="equal" unicode="=" horiz-adv-x="1228" 
d="M1133 803v-152h-1037v152h1037zM1133 385v-152h-1037v152h1037z" />
    <glyph glyph-name="greater" unicode="&#x3e;" horiz-adv-x="1228" 
d="M96 901v152l1037 -465v-139l-1037 -465v151l848 383z" />
    <glyph glyph-name="question" unicode="?" horiz-adv-x="720" 
d="M412 389h-179q6 185 21 258t59 144l86 139q45 72 58.5 123t13.5 139q0 89 -24 128.5t-82 39.5q-36 0 -59.5 -19.5t-35 -58.5t-15.5 -79.5t-5 -100.5h-209v33q0 185 83.5 294t250.5 109q133 0 219 -86.5t86 -263.5q0 -94 -20.5 -159t-75.5 -148l-90 -136
q-48 -71 -63.5 -143.5t-18.5 -212.5zM201 111q0 51 36 86.5t87 35.5t86.5 -35.5t35.5 -86.5t-35.5 -87t-86.5 -36t-87 36t-36 87z" />
    <glyph glyph-name="at" unicode="@" horiz-adv-x="1638" 
d="M1044 854q0 77 -54.5 135t-129.5 58q-92 0 -171 -67t-120 -160t-41 -181q0 -89 52.5 -144t134.5 -55q89 0 167 70t120 165t42 179zM1112 1036l41 127h152l-179 -581q-18 -67 -18 -105q0 -49 41 -49q71 0 142 64.5t116 169.5t45 212q0 161 -82 284t-218 187t-302 64
q-188 0 -340.5 -88.5t-238 -239.5t-85.5 -333q0 -184 91 -333.5t246 -233t341 -83.5q157 0 299 63t234 173h151q-109 -171 -293 -268t-401 -97q-168 0 -319.5 62t-261 167t-174 250.5t-64.5 305.5t64.5 305t174 250t261 167t319.5 62q202 0 373 -81t274 -230.5t103 -335.5
q0 -108 -35.5 -206.5t-92.5 -169t-126.5 -122.5t-139 -78t-129.5 -26q-57 0 -95.5 33t-45.5 96h-4q-47 -55 -116.5 -92t-139.5 -37q-138 0 -229 97.5t-91 236.5q0 105 37 208t101 184.5t160 132t204 50.5q171 0 250 -162z" />
    <glyph glyph-name="A" unicode="A" horiz-adv-x="948" 
d="M358 1507h209l340 -1507h-219l-59 311h-330l-59 -311h-199zM332 479h266l-131 688h-4z" />
    <glyph glyph-name="B" unicode="B" horiz-adv-x="948" 
d="M324 1329v-440h32q265 0 265 221q0 109 -61 164t-195 55h-41zM115 0v1507h293q97 0 173 -24.5t121.5 -62.5t75 -89.5t40.5 -100.5t11 -100q0 -124 -47.5 -200t-154.5 -123q235 -75 235 -369q0 -50 -8 -99.5t-36.5 -113.5t-74 -111.5t-130 -80.5t-195.5 -33h-303zM324 721
v-543q166 0 242.5 61t76.5 205q0 277 -289 277h-30z" />
    <glyph glyph-name="C" unicode="C" horiz-adv-x="948" 
d="M862 1194l-207 -70q-35 226 -155 226q-205 0 -205 -578q0 -108 5 -194.5t18.5 -167t35.5 -134.5t57.5 -86t82.5 -32q41 0 74 25t55 68t36 92.5t21 107.5l201 -72q-13 -88 -41 -159.5t-74 -129t-116.5 -89.5t-160.5 -32q-141 0 -230.5 77.5t-136 254.5t-46.5 463
q0 774 426 774q276 0 360 -344z" />
    <glyph glyph-name="D" unicode="D" horiz-adv-x="948" 
d="M324 1329v-1151q73 0 129 29.5t91.5 80t58 125.5t31.5 158t9 185q0 280 -81 426.5t-238 146.5zM115 0v1507h241q115 0 204.5 -43t145.5 -113.5t92 -171.5t50 -207.5t14 -230.5q0 -104 -13 -201.5t-47.5 -198t-88 -174t-141 -120.5t-199.5 -47h-258z" />
    <glyph glyph-name="E" unicode="E" horiz-adv-x="720" 
d="M115 1507h549v-178h-340v-440h340v-178h-340v-533h340v-178h-549v1507z" />
    <glyph glyph-name="F" unicode="F" horiz-adv-x="720" 
d="M115 1507h549v-178h-340v-440h340v-178h-340v-711h-209v1507z" />
    <glyph glyph-name="G" unicode="G" horiz-adv-x="948" 
d="M831 1204l-202 -76q-29 222 -154 222q-43 0 -74.5 -32t-56 -103t-37 -195t-12.5 -299q0 -99 4 -176.5t15.5 -152.5t31 -124.5t52.5 -79.5t77 -30q51 0 86 36t54 109.5t28 161t12 215.5h-213v188h422v-174q0 -725 -389 -725q-76 0 -136 24t-101.5 63t-71.5 100.5
t-47 124.5t-27 148t-13 158t-3 167t5 175t17.5 162t32 146.5t50.5 122.5t72 95.5t97.5 60.5t124.5 22q149 0 233.5 -87.5t122.5 -246.5z" />
    <glyph glyph-name="H" unicode="H" horiz-adv-x="948" 
d="M115 0v1507h209v-618h301v618h209v-1507h-209v711h-301v-711h-209z" />
    <glyph glyph-name="I" unicode="I" horiz-adv-x="491" 
d="M141 0v1507h209v-1507h-209z" />
    <glyph glyph-name="J" unicode="J" horiz-adv-x="720" 
d="M397 1507h209v-1216q0 -64 -16 -120t-49.5 -102t-93 -73t-138.5 -27q-181 0 -274 135l141 144q21 -45 52.5 -73t64.5 -28q49 0 76.5 34.5t27.5 88.5v1237z" />
    <glyph glyph-name="K" unicode="K" horiz-adv-x="948" 
d="M115 1507h209v-682h4l329 682h226l-361 -706l385 -801h-233l-346 752h-4v-752h-209v1507z" />
    <glyph glyph-name="L" unicode="L" horiz-adv-x="720" 
d="M141 1507h209v-1319h336v-188h-545v1507z" />
    <glyph glyph-name="M" unicode="M" horiz-adv-x="1290" 
d="M115 1507h225l303 -1005h4l303 1005h226v-1507h-199v1004h-4l-248 -857h-160l-248 857h-4v-1004h-198v1507z" />
    <glyph glyph-name="N" unicode="N" horiz-adv-x="948" 
d="M115 1507h209l307 -954h4v954h199v-1507h-209l-308 954h-4v-954h-198v1507z" />
    <glyph glyph-name="O" unicode="O" horiz-adv-x="948" 
d="M295 721q0 -99 4 -176.5t15.5 -152.5t31 -124.5t52.5 -79.5t77 -30q43 0 75 31t51.5 84t31 136.5t16 176t4.5 215.5q0 166 -13 278t-39 169t-55.5 79.5t-70.5 22.5q-43 0 -74.5 -32t-56 -103t-37 -195t-12.5 -299zM76 754q0 94 5 175t17.5 162t32 146.5t50.5 122.5
t72 95.5t97.5 60.5t124.5 22q75 0 135 -24t101 -62.5t71 -100t47 -124.5t27 -148t13 -158t3 -167q0 -110 -7 -203t-23.5 -184.5t-46.5 -161.5t-73 -124.5t-105.5 -83t-141.5 -28.5q-76 0 -136 24t-101.5 63t-71.5 100.5t-47 124.5t-27 148t-13 158t-3 167z" />
    <glyph glyph-name="P" unicode="P" horiz-adv-x="833" 
d="M115 0v1507h211q450 0 450 -467q0 -217 -106 -344t-312 -127h-34v-569h-209zM324 1329v-581q233 0 233 296q0 135 -57.5 210t-175.5 75z" />
    <glyph glyph-name="Q" unicode="Q" horiz-adv-x="948" 
d="M422 299l131 76l55 -84q45 143 45 510q0 166 -13 278t-39 169t-55.5 79.5t-70.5 22.5q-43 0 -74.5 -32t-56 -103t-37 -195t-12.5 -299q0 -99 4 -176.5t15.5 -152.5t31 -124.5t52.5 -79.5t77 -30q15 0 23 2zM668 -150l-76 140q-43 -14 -55 -17q-40 -4 -62 -4
q-76 0 -136 24t-101.5 63t-71.5 100.5t-47 124.5t-27 148t-13 158t-3 167t5 175t17.5 162t32 146.5t50.5 122.5t72 95.5t97.5 60.5t124.5 22q75 0 135 -24t101 -62.5t71 -100t47 -124.5t27 -148t13 -158t3 -167q0 -476 -139 -658l92 -141z" />
    <glyph glyph-name="R" unicode="R" horiz-adv-x="948" 
d="M127 0v1507h338q172 0 280.5 -113t108.5 -300q0 -124 -68 -232t-190 -141l305 -721h-239l-277 690h-49v-690h-209zM336 1329v-461q157 0 228 55t71 185q0 97 -60 159t-167 62h-72z" />
    <glyph glyph-name="S" unicode="S" horiz-adv-x="833" 
d="M754 1208l-189 -67q-15 209 -151 209q-59 0 -95 -46t-36 -112q0 -131 141 -268l170 -166q104 -101 145 -195t41 -217q0 -163 -95 -270t-267 -107q-155 0 -250.5 93.5t-114.5 267.5l199 63q10 -111 52 -178.5t116 -67.5q61 0 106 49.5t45 135.5q0 139 -147 286l-164 162
q-100 100 -143 194t-43 206q0 161 99.5 259.5t236.5 98.5q155 0 247.5 -88t96.5 -242z" />
    <glyph glyph-name="T" unicode="T" 
d="M313 0v1319h-266v188h741v-188h-266v-1319h-209z" />
    <glyph glyph-name="U" unicode="U" horiz-adv-x="946" 
d="M831 1507v-1134q0 -113 -26 -193t-75.5 -125.5t-111.5 -65.5t-143 -20q-82 0 -145 20t-113 65.5t-76 125.5t-26 193v1134h209v-1132q0 -217 151 -217q148 0 148 217v1132h208z" />
    <glyph glyph-name="V" unicode="V" horiz-adv-x="833" 
d="M41 1507h219l164 -1061h4l156 1061h209l-271 -1507h-198z" />
    <glyph glyph-name="W" unicode="W" horiz-adv-x="1290" 
d="M1047 1507h208l-258 -1507h-198l-152 1065h-4l-151 -1065h-199l-258 1507h219l141 -1061h4l136 1061h219l137 -1061h4z" />
    <glyph glyph-name="X" unicode="X" horiz-adv-x="833" 
d="M311 782l-248 725h220l127 -483h4l137 483h219l-250 -725l273 -782h-220l-159 547h-4l-150 -547h-219z" />
    <glyph glyph-name="Y" unicode="Y" horiz-adv-x="833" 
d="M41 1507h219l164 -628h4l156 628h209l-267 -899v-608h-209v608z" />
    <glyph glyph-name="Z" unicode="Z" horiz-adv-x="833" 
d="M88 1507h705l-471 -1329h432v-178h-713l473 1329h-426v178z" />
    <glyph glyph-name="bracketleft" unicode="[" horiz-adv-x="606" 
d="M518 1561v-179h-129v-1519h129v-178h-328v1876h328z" />
    <glyph glyph-name="backslash" unicode="\" horiz-adv-x="606" 
d="M33 1538h151l389 -1569h-151z" />
    <glyph glyph-name="bracketright" unicode="]" horiz-adv-x="606" 
d="M88 -315v178h129v1519h-129v179h328v-1876h-328z" />
    <glyph glyph-name="asciicircum" unicode="^" horiz-adv-x="1228" 
d="M264 571h-151l430 869h139l434 -869h-151l-355 701z" />
    <glyph glyph-name="underscore" unicode="_" horiz-adv-x="1024" 
d="M1024 -256h-1024v102h1024v-102z" />
    <glyph glyph-name="grave" unicode="`" horiz-adv-x="417" 
d="M-55 1507h235l150 -278h-152z" />
    <glyph glyph-name="a" unicode="a" horiz-adv-x="796" 
d="M702 0h-188v162h-4q-42 -96 -97 -138t-132 -42q-27 0 -53.5 6t-59 26.5t-56.5 53t-40.5 91t-16.5 134.5q0 215 89 302t296 87h74v141q0 129 -125 129q-60 0 -89.5 -33t-37.5 -106l-176 49q40 258 313 258q303 0 303 -289v-831zM254 317q0 -82 22.5 -124.5t83.5 -42.5
q55 0 104.5 61.5t49.5 173.5v145h-51q-67 0 -111.5 -17.5t-64 -50.5t-26.5 -66t-7 -79z" />
    <glyph glyph-name="b" unicode="b" 
d="M297 551q0 -391 129 -391q127 0 127 391t-127 391q-129 0 -129 -391zM109 0v1507h188v-577h4q35 102 84 146t127 44q250 0 250 -567q0 -270 -65 -420.5t-191 -150.5q-79 0 -127.5 49.5t-77.5 148.5l-4 2v-182h-188z" />
    <glyph glyph-name="c" unicode="c" horiz-adv-x="720" 
d="M664 821l-189 -41q-2 83 -22 122.5t-68 39.5q-28 0 -46 -14t-34.5 -53.5t-24.5 -120.5t-8 -205q0 -195 27 -292t88 -97q49 0 73.5 42.5t35.5 145.5l178 -61q-22 -154 -90.5 -229.5t-196.5 -75.5q-160 0 -236.5 133t-76.5 417q0 307 77 447.5t244 140.5q55 0 100.5 -18
t75.5 -47t51 -68.5t31 -81t11 -84.5z" />
    <glyph glyph-name="d" unicode="d" 
d="M283 551q0 -391 127 -391q129 0 129 391t-129 391q-127 0 -127 -391zM539 0v182l-4 -2q-29 -99 -77.5 -148.5t-127.5 -49.5q-126 0 -191 150.5t-65 420.5q0 567 250 567q78 0 127 -44t84 -146h4v577h188v-1507h-188z" />
    <glyph glyph-name="e" unicode="e" horiz-adv-x="833" 
d="M285 682h274q0 72 -12 129.5t-44.5 99t-82.5 41.5q-135 0 -135 -270zM748 530h-463q0 -49 1.5 -83.5t5 -77.5t9.5 -72t16 -59t24.5 -47.5t36 -29t48.5 -11.5q43 0 72 33t40 73.5t13 87.5h178q-1 -72 -20 -135.5t-55.5 -115t-96 -81.5t-135.5 -30q-118 0 -190.5 58
t-109 190t-36.5 350q0 275 88 407.5t252 132.5q149 0 235.5 -113.5t86.5 -318.5v-158z" />
    <glyph glyph-name="f" unicode="f" horiz-adv-x="493" 
d="M346 924v-924h-199v924h-106v178h106v164q0 66 8 110t30.5 80t65 53t107.5 17q58 0 95 -6v-189q-12 6 -37 6q-31 0 -50.5 -21.5t-19.5 -64.5v-149h107v-178h-107z" />
    <glyph glyph-name="g" unicode="g" 
d="M539 551q0 391 -129 391q-127 0 -127 -391t127 -391q129 0 129 391zM549 1102h178v-1170q0 -147 -87.5 -241t-248.5 -94q-109 0 -182.5 35.5t-124.5 113.5l160 111q23 -41 61.5 -67t85.5 -26q84 0 116 75.5t32 246.5v94h-4q-29 -99 -77.5 -148.5t-127.5 -49.5
q-126 0 -191 150.5t-65 420.5q0 567 250 567q84 0 133.5 -48.5t87.5 -149.5h4v180z" />
    <glyph glyph-name="h" unicode="h" horiz-adv-x="833" 
d="M109 0v1507h198v-530h4q30 64 82.5 103.5t124.5 39.5q85 0 146 -69t61 -174v-877h-199v797q0 63 -27 99t-69 36q-57 0 -90 -46t-33 -110v-776h-198z" />
    <glyph glyph-name="i" unicode="i" horiz-adv-x="415" 
d="M109 0v1102h198v-1102h-198zM80 1356q0 52 37 89.5t90 37.5q54 0 91.5 -37t37.5 -90q0 -54 -37.5 -91.5t-91.5 -37.5q-53 0 -90 37.5t-37 91.5z" />
    <glyph glyph-name="j" unicode="j" horiz-adv-x="415" 
d="M109 1102h198v-1192q0 -158 -65.5 -229.5t-173.5 -71.5q-40 0 -84 14v189q23 -15 41 -15q84 0 84 142v1163zM80 1356q0 52 37 89.5t90 37.5q54 0 91.5 -37t37.5 -90q0 -54 -37.5 -91.5t-91.5 -37.5q-53 0 -90 37.5t-37 91.5z" />
    <glyph glyph-name="k" unicode="k" horiz-adv-x="720" 
d="M109 0v1507h198v-858h4l172 453h199l-193 -465l195 -637h-199l-174 569h-4v-569h-198z" />
    <glyph glyph-name="l" unicode="l" horiz-adv-x="454" 
d="M109 260v1247h198v-1204q0 -67 30 -100t99 -33h21v-188h-74q-131 0 -202.5 65t-71.5 213z" />
    <glyph glyph-name="m" unicode="m" horiz-adv-x="1288" 
d="M109 0v1102h188v-166h4q75 184 219 184q76 0 121.5 -46t75.5 -136h4q66 182 237 182q103 0 162.5 -66.5t59.5 -172.5v-881h-199v772q0 70 -25.5 115t-81.5 45q-66 0 -98.5 -55t-32.5 -142v-735h-198v772q0 70 -25.5 115t-81.5 45q-66 0 -98.5 -55t-32.5 -142v-735h-198z
" />
    <glyph glyph-name="n" unicode="n" horiz-adv-x="833" 
d="M109 0v1102h188v-150h4q36 90 89.5 129t129.5 39q84 0 144.5 -69t60.5 -174v-877h-199v797q0 63 -27 99t-69 36q-57 0 -90 -46t-33 -110v-776h-198z" />
    <glyph glyph-name="o" unicode="o" 
d="M418 -18q-94 0 -162.5 43.5t-107.5 123.5t-56.5 179t-17.5 223t17.5 223t56.5 179t107.5 123.5t162.5 43.5t162.5 -43.5t107.5 -123.5t56.5 -179t17.5 -223t-17.5 -223t-56.5 -179t-107.5 -123.5t-162.5 -43.5zM418 150q135 0 135 454q0 348 -135 348t-135 -348
q0 -454 135 -454z" />
    <glyph glyph-name="p" unicode="p" 
d="M297 551q0 -391 129 -391q127 0 127 391t-127 391q-129 0 -129 -391zM109 -391v1493h178v-180h4q38 101 87.5 149.5t133.5 48.5q250 0 250 -567q0 -270 -65 -420.5t-191 -150.5q-79 0 -127.5 49.5t-77.5 148.5l-4 2v-573h-188z" />
    <glyph glyph-name="q" unicode="q" 
d="M283 551q0 -391 127 -391q129 0 129 391t-129 391q-127 0 -127 -391zM539 -391v573l-4 -2q-29 -99 -77.5 -148.5t-127.5 -49.5q-126 0 -191 150.5t-65 420.5q0 567 250 567q84 0 133.5 -48.5t87.5 -149.5h4v180h178v-1493h-188z" />
    <glyph glyph-name="r" unicode="r" horiz-adv-x="606" 
d="M109 0v1102h188v-201h4q17 86 75.5 149t162.5 70h2v-229q-27 10 -60 10q-31 0 -59.5 -12t-55.5 -39.5t-43 -80.5t-16 -126v-643h-198z" />
    <glyph glyph-name="s" unicode="s" horiz-adv-x="720" 
d="M51 195l172 108q2 -62 38.5 -107.5t96.5 -45.5q52 0 82.5 33.5t30.5 76.5q0 87 -123 184l-104 82q-101 79 -141 147t-40 156q0 132 83 211.5t210 79.5q217 0 301 -215l-170 -102q-3 63 -37.5 106t-95.5 43q-47 0 -74.5 -27.5t-27.5 -72.5q0 -38 25 -73t98 -91l125 -96
q92 -72 131 -147t39 -162q0 -127 -84.5 -214t-231.5 -87q-111 0 -184.5 50.5t-118.5 162.5z" />
    <glyph glyph-name="t" unicode="t" horiz-adv-x="493" 
d="M453 1102v-178h-107v-650q0 -41 21.5 -63.5t60.5 -22.5h25v-178q-55 -10 -95 -10q-99 0 -155 49t-56 150v725h-106v178h106v274h199v-274h107z" />
    <glyph glyph-name="u" unicode="u" horiz-adv-x="833" 
d="M725 1102v-1102h-188v150h-5q-36 -90 -89.5 -129t-129.5 -39q-84 0 -144 69t-60 174v877h198v-797q0 -63 27 -99t69 -36q57 0 90 46t33 110v776h199z" />
    <glyph glyph-name="v" unicode="v" horiz-adv-x="720" 
d="M481 1102h199l-225 -1102h-189l-225 1102h209l117 -721h4z" />
    <glyph glyph-name="w" unicode="w" horiz-adv-x="1062" 
d="M1022 1102l-193 -1102h-188l-109 836h-4l-106 -836h-189l-192 1102h199l96 -721h4l92 721h199l100 -721h4l88 721h199z" />
    <glyph glyph-name="x" unicode="x" horiz-adv-x="720" 
d="M51 1102h209l105 -354h4l100 354h188l-202 -524l219 -578h-199l-119 401h-4l-106 -401h-199l219 575z" />
    <glyph glyph-name="y" unicode="y" horiz-adv-x="720" 
d="M481 1102h199l-307 -1493h-199l98 442l-231 1051h199l133 -723h4z" />
    <glyph glyph-name="z" unicode="z" horiz-adv-x="720" 
d="M57 25l351 899h-355v178h611v-25l-347 -889h351v-188h-611v25z" />
    <glyph glyph-name="braceleft" unicode="{" horiz-adv-x="606" 
d="M565 -186v-129h-92q-120 0 -188 71.5t-68 206.5v346q0 104 -41.5 174t-93.5 70v139q52 0 93.5 70t41.5 174v346q0 132 74 205.5t182 73.5h92v-129h-45q-53 0 -78.5 -42t-25.5 -114v-330q1 -67 -14.5 -122.5t-39.5 -90t-55 -59t-57.5 -35.5t-50.5 -14v-4q24 -3 50.5 -14
t57.5 -36t55 -59.5t39.5 -90t14.5 -122.5v-330q0 -39 3 -63t13.5 -47t32 -34t55.5 -11h45z" />
    <glyph glyph-name="bar" unicode="|" horiz-adv-x="454" 
d="M152 -512v2048h151v-2048h-151z" />
    <glyph glyph-name="braceright" unicode="}" horiz-adv-x="606" 
d="M41 1432v129h92q119 0 187.5 -72t68.5 -207v-346q0 -104 41.5 -174t93.5 -70v-139q-52 0 -93.5 -70t-41.5 -174v-346q0 -132 -74 -205t-182 -73h-92v129h45q53 0 78.5 42t25.5 113v330q-1 67 14.5 122.5t39.5 90t55 59.5t58 36t51 14v4q-24 3 -51 14t-58 35.5t-55 59
t-39.5 90t-14.5 122.5v330q0 39 -3 63.5t-13.5 47.5t-32 34t-55.5 11h-45z" />
    <glyph glyph-name="asciitilde" unicode="~" horiz-adv-x="1228" 
d="M1014 676l73 -131q-58 -88 -117.5 -130t-138.5 -42q-96 0 -217 67q-131 72 -221 72q-60 0 -102.5 -37.5t-75.5 -114.5l-74 132q92 172 256 172q102 0 226 -62q157 -78 211 -78q48 0 89.5 38.5t90.5 113.5z" />
    <glyph glyph-name="uni00A0" unicode="&#xa0;" horiz-adv-x="491" 
 />
    <glyph glyph-name="exclamdown" unicode="&#xa1;" horiz-adv-x="491" 
d="M360 -373h-229l39 1118h152zM369 1024q0 -51 -36 -87t-87 -36t-87 36t-36 87t36 87t87 36t87 -36t36 -87z" />
    <glyph glyph-name="cent" unicode="&#xa2;" 
d="M551 348l178 -61q-19 -136 -74.5 -211.5t-156.5 -93.5v-158h-107v158q-134 25 -198 158.5t-64 391.5q0 277 63 418.5t199 169.5v144h107v-144q108 -19 163 -105t58 -194l-189 -41q-2 83 -22 122.5t-68 39.5q-27 0 -45.5 -14t-34.5 -53.5t-24 -120.5t-8 -205
q0 -196 26.5 -292.5t87.5 -96.5q49 0 73.5 42.5t35.5 145.5z" />
    <glyph glyph-name="sterling" unicode="&#xa3;" 
d="M51 688v107h187q-109 166 -109 335q0 155 103 244.5t262 89.5q162 0 247.5 -101.5t85.5 -268.5v-45v-5h-209q0 242 -147 242q-64 0 -98.5 -44t-34.5 -107q0 -122 129 -340h283v-107h-236q21 -61 21 -119q0 -93 -47 -157.5t-152 -124.5l-2 -8q46 0 92 -18t77 -39.5
t70.5 -39.5t73.5 -18q89 0 180 94v-215q-115 -68 -211 -68q-50 0 -94.5 15.5t-75.5 38t-59 45t-58.5 38t-60.5 15.5q-92 0 -92 -127h-168q4 130 43 191.5t162 136.5q113 69 113 194q0 77 -39 166h-236z" />
    <glyph glyph-name="currency" unicode="&#xa4;" 
d="M88 313l-76 76l86 86q-86 106 -86 244q0 135 84 246l-84 84l76 75l82 -84q112 84 248 84q131 0 246 -84l84 84l75 -75l-84 -84q84 -112 84 -246q0 -138 -86 -244l86 -86l-75 -76l-84 86q-107 -86 -246 -86t-246 86zM164 719q0 -104 75 -179t179 -75t179 75t75 179
t-75 179t-179 75t-179 -75t-75 -179z" />
    <glyph glyph-name="yen" unicode="&#xa5;" 
d="M328 0v381h-262v106h262v156h-262v107h223l-248 690h209l174 -629h4l168 629h199l-242 -690h215v-107h-252v-156h252v-106h-252v-381h-188z" />
    <glyph glyph-name="brokenbar" unicode="&#xa6;" horiz-adv-x="454" 
d="M152 -358v716h151v-716h-151zM152 666v716h151v-716h-151z" />
    <glyph glyph-name="section" unicode="&#xa7;" horiz-adv-x="948" 
d="M782 1399l-143 -137q-31 54 -62 76t-75 22q-46 0 -77.5 -30t-31.5 -75q0 -57 38.5 -105t162.5 -136q156 -110 220.5 -194.5t64.5 -188.5q0 -109 -64 -188.5t-168 -98.5q135 -86 135 -258q0 -124 -92.5 -205.5t-230.5 -81.5q-82 0 -153.5 33t-139.5 113l137 149
q66 -117 164 -117q46 0 81.5 31.5t35.5 79.5q0 52 -38 95t-151 122q-191 132 -258 221t-67 205q0 114 67.5 189t181.5 84l-4 4q-58 38 -89 102.5t-31 144.5q0 120 85.5 201.5t217.5 81.5q87 0 154 -28t130 -111zM670 612q0 88 -115 181q-90 71 -168 71q-46 0 -82.5 -35.5
t-36.5 -80.5q0 -64 82 -150q108 -111 195 -111q12 0 30 5.5t40.5 18t38.5 39.5t16 62z" />
    <glyph glyph-name="dieresis" unicode="&#xa8;" horiz-adv-x="417" 
d="M-86 1372q0 51 36 87t87 36t87 -36t36 -87t-36 -87t-87 -36t-87 36t-36 87zM258 1372q0 51 36 87t87 36t87 -36t36 -87t-36 -87t-87 -36t-87 36t-36 87z" />
    <glyph glyph-name="copyright" unicode="&#xa9;" horiz-adv-x="1638" 
d="M1231 909h-139q-19 87 -87 142t-165 55q-143 0 -223 -99t-80 -251q0 -143 85 -249t222 -106q99 0 166.5 58.5t81.5 148.5h139q-29 -155 -134 -245.5t-249 -90.5q-206 0 -334.5 138t-128.5 346q0 210 124.5 344.5t332.5 134.5q153 0 260.5 -86t128.5 -240zM35 754
q0 160 62 305t167 250t250 167t305 62t305.5 -62t250.5 -167t167 -250t62 -305t-62 -305.5t-167 -250.5t-250.5 -167t-305.5 -62t-305 62t-250 167t-167 250.5t-62 305.5zM186 754q0 -129 50 -246t135 -202t202 -135t246 -50t246 50t202 135t135 202t50 246
q0 172 -84.5 317.5t-230.5 230t-318 84.5t-318 -84.5t-230.5 -230t-84.5 -317.5z" />
    <glyph glyph-name="ordfeminine" unicode="&#xaa;" horiz-adv-x="518" 
d="M487 793h-139v96l-4 2q-26 -60 -64.5 -85.5t-105.5 -25.5q-22 0 -43.5 7t-45.5 25.5t-39 60t-15 100.5q0 130 57 182.5t191 52.5h69v60q0 78 -92 78q-46 0 -67.5 -20t-26.5 -64l-131 30q14 98 69.5 135t159.5 37q117 0 172 -40.5t55 -131.5v-499zM348 1102h-33
q-81 0 -107 -31t-26 -84q0 -42 14 -65t52 -23q36 0 68 34t32 97v72z" />
    <glyph glyph-name="guillemotleft" unicode="&#xab;" horiz-adv-x="833" 
d="M393 573l189 318h198l-198 -318l198 -305h-198zM53 573l189 318h198l-198 -318l198 -305h-198z" />
    <glyph glyph-name="logicalnot" unicode="&#xac;" horiz-adv-x="1228" 
d="M981 221v430h-885v152h1037v-582h-152z" />
    <glyph glyph-name="uni00AD" unicode="&#xad;" horiz-adv-x="606" 
d="M104 670h398v-178h-398v178z" />
    <glyph glyph-name="registered" unicode="&#xae;" horiz-adv-x="1638" 
d="M35 754q0 160 62 305t167 250t250 167t305 62t305.5 -62t250.5 -167t167 -250t62 -305t-62 -305.5t-167 -250.5t-250.5 -167t-305.5 -62t-305 62t-250 167t-167 250.5t-62 305.5zM186 754q0 -129 50 -246t135 -202t202 -135t246 -50t246 50t202 135t135 202t50 246
q0 172 -84.5 317.5t-230.5 230t-318 84.5t-318 -84.5t-230.5 -230t-84.5 -317.5zM655 696v-395h-139v907h346q160 0 239 -63.5t79 -194.5q0 -218 -234 -250l256 -399h-164l-243 395h-140zM655 815h162q42 0 69 2t59.5 10t50.5 22.5t31 42t13 66.5q0 132 -198 132h-187v-275z
" />
    <glyph glyph-name="macron" unicode="&#xaf;" horiz-adv-x="417" 
d="M-68 1401h553v-139h-553v139z" />
    <glyph glyph-name="degree" unicode="&#xb0;" horiz-adv-x="819" 
d="M117 1171q0 121 85.5 207t207.5 86q121 0 206.5 -85.5t85.5 -207.5q0 -121 -85 -206.5t-207 -85.5t-207.5 85.5t-85.5 206.5zM236 1171q0 -72 51 -123t123 -51t123 51t51 123t-51 123.5t-123 51.5t-123 -51.5t-51 -123.5z" />
    <glyph glyph-name="plusminus" unicode="&#xb1;" horiz-adv-x="1228" 
d="M539 707v329h151v-329h443v-152h-443v-330h-151v330h-443v152h443zM96 0v152h1037v-152h-1037z" />
    <glyph glyph-name="twosuperior" unicode="&#xb2;" horiz-adv-x="542" 
d="M264 715h234v-129h-471l213 385q112 201 112 272q0 38 -20 65t-51 27q-45 0 -65.5 -38t-25.5 -115h-167q0 64 12 113t39.5 88.5t78.5 60t123 20.5q120 0 182 -62t62 -147q0 -71 -44 -167t-130 -238z" />
    <glyph glyph-name="threesuperior" unicode="&#xb3;" horiz-adv-x="542" 
d="M82 1055l186 280h-213v129h449v-16l-213 -315h4q10 4 41 4q174 0 174 -285q0 -129 -65 -206t-183 -77q-229 0 -229 269h151q0 -140 84 -140q90 0 90 166q0 75 -26.5 120.5t-79.5 45.5q-43 0 -76 -41z" />
    <glyph glyph-name="acute" unicode="&#xb4;" horiz-adv-x="417" 
d="M88 1229l150 278h235l-233 -278h-152z" />
    <glyph glyph-name="mu" unicode="&#xb5;" horiz-adv-x="833" 
d="M725 1102v-1102h-188v150h-5q-37 -93 -92 -131.5t-133 -36.5v-373h-198v1493h198v-797q0 -63 27 -99t69 -36q57 0 90 46t33 110v776h199z" />
    <glyph glyph-name="paragraph" unicode="&#xb6;" horiz-adv-x="948" 
d="M330 -170v963q-121 0 -211 95.5t-90 252.5q0 186 94 276t264 90h387v-1677h-151v1548h-142v-1548h-151z" />
    <glyph glyph-name="periodcentered" unicode="&#xb7;" horiz-adv-x="491" 
d="M100 653q0 60 43 103t103 43t102.5 -43t42.5 -103t-42.5 -102.5t-102.5 -42.5t-103 42.5t-43 102.5z" />
    <glyph glyph-name="cedilla" unicode="&#xb8;" horiz-adv-x="417" 
d="M182 -319h-151q79 121 88 266h178q-6 -63 -39 -139t-76 -127z" />
    <glyph glyph-name="onesuperior" unicode="&#xb9;" horiz-adv-x="499" 
d="M190 586v671q-17 -18 -55.5 -39.5t-66.5 -29.5v133q127 59 225 143h49v-878h-152z" />
    <glyph glyph-name="ordmasculine" unicode="&#xba;" horiz-adv-x="544" 
d="M31 1120q0 344 241 344q242 0 242 -344q0 -340 -242 -340q-241 0 -241 340zM199 1133q0 -125 15 -179.5t58 -54.5q44 0 59 54.5t15 179.5q0 44 -1 71t-5 57.5t-11.5 46.5t-22 27t-34.5 11q-25 0 -40.5 -14t-22.5 -47t-8.5 -64t-1.5 -88z" />
    <glyph glyph-name="guillemotright" unicode="&#xbb;" horiz-adv-x="833" 
d="M252 268h-199l199 318l-199 305h199l188 -305zM592 268h-199l199 318l-199 305h199l188 -305z" />
    <glyph glyph-name="onequarter" unicode="&#xbc;" horiz-adv-x="1249" 
d="M813 270h164v373h-4zM967 862h149v-592h101v-129h-101v-141h-139v141h-289v109zM967 1481h131l-883 -1522h-131zM190 586v671q-17 -18 -55.5 -39.5t-66.5 -29.5v133q127 59 225 143h49v-878h-152z" />
    <glyph glyph-name="onehalf" unicode="&#xbd;" horiz-adv-x="1249" 
d="M967 1481h131l-883 -1522h-131zM961 129h233v-129h-471l213 385q113 203 113 272q0 38 -20.5 65.5t-51.5 27.5q-45 0 -65 -38.5t-25 -115.5h-168q0 64 12 113t40 88.5t79 60.5t123 21q120 0 182 -62t62 -147q0 -71 -44 -167t-131 -239zM190 586v671q-17 -18 -55.5 -39.5
t-66.5 -29.5v133q127 59 225 143h49v-878h-152z" />
    <glyph glyph-name="threequarters" unicode="&#xbe;" horiz-adv-x="1249" 
d="M813 270h164v373h-4zM967 862h149v-592h101v-129h-101v-141h-139v141h-289v109zM1030 1481h131l-882 -1522h-132zM82 1055l186 280h-213v129h449v-16l-213 -315h4q10 4 41 4q174 0 174 -285q0 -129 -65 -206t-183 -77q-229 0 -229 269h151q0 -140 84 -140q90 0 90 166
q0 75 -26.5 120.5t-79.5 45.5q-43 0 -76 -41z" />
    <glyph glyph-name="questiondown" unicode="&#xbf;" horiz-adv-x="720" 
d="M309 745h178q-6 -185 -20.5 -258t-58.5 -143l-86 -139q-45 -72 -58.5 -123t-13.5 -139q0 -89 24 -128.5t82 -39.5q36 0 59.5 19.5t35 58.5t15.5 79.5t5 100.5h209v-33q0 -185 -83.5 -294t-250.5 -109q-133 0 -219 86.5t-86 263.5q0 94 20.5 159t75.5 148l90 135
q48 71 63.5 143.5t18.5 212.5zM520 1024q0 -51 -36 -87t-87 -36t-87 36t-36 87t36 87t87 36t87 -36t36 -87z" />
    <glyph glyph-name="Agrave" unicode="&#xc0;" horiz-adv-x="948" 
d="M358 1507h209l340 -1507h-219l-59 311h-330l-59 -311h-199zM332 479h266l-131 688h-4zM199 1862h235l150 -279h-152z" />
    <glyph glyph-name="Aacute" unicode="&#xc1;" horiz-adv-x="948" 
d="M358 1507h209l340 -1507h-219l-59 311h-330l-59 -311h-199zM332 479h266l-131 688h-4zM342 1583l150 279h235l-233 -279h-152z" />
    <glyph glyph-name="Acircumflex" unicode="&#xc2;" horiz-adv-x="948" 
d="M358 1507h209l340 -1507h-219l-59 311h-330l-59 -311h-199zM332 479h266l-131 688h-4zM358 1862h209l156 -279h-168l-100 160l-101 -160h-151z" />
    <glyph glyph-name="Atilde" unicode="&#xc3;" horiz-adv-x="948" 
d="M358 1507h209l340 -1507h-219l-59 311h-330l-59 -311h-199zM332 479h266l-131 688h-4zM643 1823h96q0 -88 -49.5 -153.5t-126.5 -65.5q-38 0 -119 38q-61 29 -94 29q-27 0 -43 -14t-24 -53h-97q8 93 37 141q42 65 125 65q46 0 129 -30q74 -25 96 -25q53 0 70 68z" />
    <glyph glyph-name="Adieresis" unicode="&#xc4;" horiz-adv-x="948" 
d="M358 1507h209l340 -1507h-219l-59 311h-330l-59 -311h-199zM332 479h266l-131 688h-4zM168 1726q0 51 36 87t87 36t87 -36t36 -87t-36 -86.5t-87 -35.5t-87 35.5t-36 86.5zM512 1726q0 51 36 87t87 36t87 -36t36 -87t-36 -86.5t-87 -35.5t-87 35.5t-36 86.5z" />
    <glyph glyph-name="Aring" unicode="&#xc5;" horiz-adv-x="948" 
d="M358 1507h209l340 -1507h-219l-59 311h-330l-59 -311h-199zM332 479h266l-131 688h-4zM283 1733q0 75 52.5 127.5t127.5 52.5t127.5 -52.5t52.5 -127.5t-52.5 -128t-127.5 -53t-127.5 53t-52.5 128zM369 1733q0 -38 28 -66.5t66 -28.5t66 28.5t28 66.5t-28 66t-66 28
t-66 -28t-28 -66z" />
    <glyph glyph-name="AE" unicode="&#xc6;" horiz-adv-x="1290" 
d="M506 1507h711v-178h-375v-440h375v-178h-375v-523h375v-188h-584v311h-293l-90 -311h-209zM387 479h246v889h-4z" />
    <glyph glyph-name="Ccedilla" unicode="&#xc7;" horiz-adv-x="948" 
d="M862 1194l-207 -70q-35 226 -155 226q-205 0 -205 -578q0 -108 5 -194.5t18.5 -167t35.5 -134.5t57.5 -86t82.5 -32q41 0 74 25t55 68t36 92.5t21 107.5l201 -72q-13 -88 -41 -159.5t-74 -129t-116.5 -89.5t-160.5 -32q-141 0 -230.5 77.5t-136 254.5t-46.5 463
q0 774 426 774q276 0 360 -344zM469 -319h-152q80 123 89 266h178q-6 -63 -39 -139t-76 -127z" />
    <glyph glyph-name="Egrave" unicode="&#xc8;" horiz-adv-x="720" 
d="M115 1507h549v-178h-340v-440h340v-178h-340v-533h340v-178h-549v1507zM109 1862h235l150 -279h-152z" />
    <glyph glyph-name="Eacute" unicode="&#xc9;" horiz-adv-x="720" 
d="M115 1507h549v-178h-340v-440h340v-178h-340v-533h340v-178h-549v1507zM252 1583l149 279h236l-234 -279h-151z" />
    <glyph glyph-name="Ecircumflex" unicode="&#xca;" horiz-adv-x="720" 
d="M115 1507h549v-178h-340v-440h340v-178h-340v-533h340v-178h-549v1507zM268 1862h209l156 -279h-168l-100 160l-101 -160h-151z" />
    <glyph glyph-name="Edieresis" unicode="&#xcb;" horiz-adv-x="720" 
d="M115 1507h549v-178h-340v-440h340v-178h-340v-533h340v-178h-549v1507zM78 1726q0 51 36 87t87 36t87 -36t36 -87t-36 -86.5t-87 -35.5t-87 35.5t-36 86.5zM422 1726q0 51 36 87t87 36t87 -36t36 -87t-36 -86.5t-87 -35.5t-87 35.5t-36 86.5z" />
    <glyph glyph-name="Igrave" unicode="&#xcc;" horiz-adv-x="491" 
d="M141 0v1507h209v-1507h-209zM-31 1862h236l149 -279h-151z" />
    <glyph glyph-name="Iacute" unicode="&#xcd;" horiz-adv-x="491" 
d="M141 0v1507h209v-1507h-209zM113 1583l149 279h236l-234 -279h-151z" />
    <glyph glyph-name="Icircumflex" unicode="&#xce;" horiz-adv-x="491" 
d="M141 0v1507h209v-1507h-209zM129 1862h209l156 -279h-168l-101 160l-100 -160h-152z" />
    <glyph glyph-name="Idieresis" unicode="&#xcf;" horiz-adv-x="491" 
d="M141 0v1507h209v-1507h-209zM-61 1726q0 51 35.5 87t86.5 36t87 -36t36 -87t-36 -86.5t-87 -35.5t-86.5 35.5t-35.5 86.5zM283 1726q0 51 36 87t87 36t86.5 -36t35.5 -87t-35.5 -86.5t-86.5 -35.5t-87 35.5t-36 86.5z" />
    <glyph glyph-name="Eth" unicode="&#xd0;" horiz-adv-x="948" 
d="M117 0v721h-113v168h113v618h243q115 0 204.5 -43t145.5 -113.5t92 -171.5t50 -207.5t14 -230.5q0 -104 -13 -201.5t-47.5 -198t-88 -174t-141 -120.5t-199.5 -47h-260zM326 1329v-440h170v-168h-170v-543q92 0 156 43.5t99.5 125t50.5 181t15 228.5q0 280 -81.5 426.5
t-239.5 146.5z" />
    <glyph glyph-name="Ntilde" unicode="&#xd1;" horiz-adv-x="948" 
d="M115 1507h209l307 -954h4v954h199v-1507h-209l-308 954h-4v-954h-198v1507zM655 1823h97q0 -88 -50 -153.5t-127 -65.5q-37 0 -118 38q-61 29 -95 29q-27 0 -43 -14t-24 -53h-96q8 93 37 141q42 65 124 65q46 0 129 -30q74 -25 97 -25q52 0 69 68z" />
    <glyph glyph-name="Ograve" unicode="&#xd2;" horiz-adv-x="948" 
d="M295 721q0 -99 4 -176.5t15.5 -152.5t31 -124.5t52.5 -79.5t77 -30q43 0 75 31t51.5 84t31 136.5t16 176t4.5 215.5q0 166 -13 278t-39 169t-55.5 79.5t-70.5 22.5q-43 0 -74.5 -32t-56 -103t-37 -195t-12.5 -299zM76 754q0 94 5 175t17.5 162t32 146.5t50.5 122.5
t72 95.5t97.5 60.5t124.5 22q75 0 135 -24t101 -62.5t71 -100t47 -124.5t27 -148t13 -158t3 -167q0 -110 -7 -203t-23.5 -184.5t-46.5 -161.5t-73 -124.5t-105.5 -83t-141.5 -28.5q-76 0 -136 24t-101.5 63t-71.5 100.5t-47 124.5t-27 148t-13 158t-3 167zM211 1862h235
l150 -279h-152z" />
    <glyph glyph-name="Oacute" unicode="&#xd3;" horiz-adv-x="948" 
d="M295 721q0 -99 4 -176.5t15.5 -152.5t31 -124.5t52.5 -79.5t77 -30q43 0 75 31t51.5 84t31 136.5t16 176t4.5 215.5q0 166 -13 278t-39 169t-55.5 79.5t-70.5 22.5q-43 0 -74.5 -32t-56 -103t-37 -195t-12.5 -299zM76 754q0 94 5 175t17.5 162t32 146.5t50.5 122.5
t72 95.5t97.5 60.5t124.5 22q75 0 135 -24t101 -62.5t71 -100t47 -124.5t27 -148t13 -158t3 -167q0 -110 -7 -203t-23.5 -184.5t-46.5 -161.5t-73 -124.5t-105.5 -83t-141.5 -28.5q-76 0 -136 24t-101.5 63t-71.5 100.5t-47 124.5t-27 148t-13 158t-3 167zM354 1583l150 279
h235l-233 -279h-152z" />
    <glyph glyph-name="Ocircumflex" unicode="&#xd4;" horiz-adv-x="948" 
d="M295 721q0 -99 4 -176.5t15.5 -152.5t31 -124.5t52.5 -79.5t77 -30q43 0 75 31t51.5 84t31 136.5t16 176t4.5 215.5q0 166 -13 278t-39 169t-55.5 79.5t-70.5 22.5q-43 0 -74.5 -32t-56 -103t-37 -195t-12.5 -299zM76 754q0 94 5 175t17.5 162t32 146.5t50.5 122.5
t72 95.5t97.5 60.5t124.5 22q75 0 135 -24t101 -62.5t71 -100t47 -124.5t27 -148t13 -158t3 -167q0 -110 -7 -203t-23.5 -184.5t-46.5 -161.5t-73 -124.5t-105.5 -83t-141.5 -28.5q-76 0 -136 24t-101.5 63t-71.5 100.5t-47 124.5t-27 148t-13 158t-3 167zM371 1862h209
l155 -279h-168l-100 160l-100 -160h-152z" />
    <glyph glyph-name="Otilde" unicode="&#xd5;" horiz-adv-x="948" 
d="M295 721q0 -99 4 -176.5t15.5 -152.5t31 -124.5t52.5 -79.5t77 -30q43 0 75 31t51.5 84t31 136.5t16 176t4.5 215.5q0 166 -13 278t-39 169t-55.5 79.5t-70.5 22.5q-43 0 -74.5 -32t-56 -103t-37 -195t-12.5 -299zM76 754q0 94 5 175t17.5 162t32 146.5t50.5 122.5
t72 95.5t97.5 60.5t124.5 22q75 0 135 -24t101 -62.5t71 -100t47 -124.5t27 -148t13 -158t3 -167q0 -110 -7 -203t-23.5 -184.5t-46.5 -161.5t-73 -124.5t-105.5 -83t-141.5 -28.5q-76 0 -136 24t-101.5 63t-71.5 100.5t-47 124.5t-27 148t-13 158t-3 167zM655 1823h97
q0 -88 -50 -153.5t-127 -65.5q-37 0 -118 38q-61 29 -95 29q-27 0 -43 -14t-24 -53h-96q8 93 37 141q42 65 124 65q46 0 129 -30q74 -25 97 -25q52 0 69 68z" />
    <glyph glyph-name="Odieresis" unicode="&#xd6;" horiz-adv-x="948" 
d="M295 721q0 -99 4 -176.5t15.5 -152.5t31 -124.5t52.5 -79.5t77 -30q43 0 75 31t51.5 84t31 136.5t16 176t4.5 215.5q0 166 -13 278t-39 169t-55.5 79.5t-70.5 22.5q-43 0 -74.5 -32t-56 -103t-37 -195t-12.5 -299zM76 754q0 94 5 175t17.5 162t32 146.5t50.5 122.5
t72 95.5t97.5 60.5t124.5 22q75 0 135 -24t101 -62.5t71 -100t47 -124.5t27 -148t13 -158t3 -167q0 -110 -7 -203t-23.5 -184.5t-46.5 -161.5t-73 -124.5t-105.5 -83t-141.5 -28.5q-76 0 -136 24t-101.5 63t-71.5 100.5t-47 124.5t-27 148t-13 158t-3 167zM180 1726
q0 51 36 87t87 36t87 -36t36 -87t-36 -86.5t-87 -35.5t-87 35.5t-36 86.5zM524 1726q0 51 36 87t87 36t87 -36t36 -87t-36 -86.5t-87 -35.5t-87 35.5t-36 86.5z" />
    <glyph glyph-name="multiply" unicode="&#xd7;" horiz-adv-x="1228" 
d="M510 518l-365 365l105 104l364 -364l365 364l104 -104l-364 -365l364 -364l-104 -105l-365 365l-364 -365l-105 105z" />
    <glyph glyph-name="Oslash" unicode="&#xd8;" horiz-adv-x="948" 
d="M49 -14l101 207q-74 173 -74 561q0 94 5 175t17.5 162t32 146.5t50.5 122.5t72 95.5t97.5 60.5t124.5 22q169 0 264 -119l70 146l90 -43l-100 -207q73 -174 73 -561q0 -110 -7 -203t-23.5 -184.5t-46.5 -161.5t-73 -124.5t-105.5 -83t-141.5 -28.5q-173 0 -264 121
l-72 -147zM303 508l320 670q-23 96 -60 134t-88 38q-43 0 -74.5 -32t-56 -103t-37 -195t-12.5 -299q0 -81 4 -213h4zM643 995l-315 -663q40 -174 147 -174q43 0 75 31t51.5 84t31 136.5t16 176t4.5 215.5q0 115 -6 194h-4z" />
    <glyph glyph-name="Ugrave" unicode="&#xd9;" horiz-adv-x="946" 
d="M831 1507v-1134q0 -113 -26 -193t-75.5 -125.5t-111.5 -65.5t-143 -20q-82 0 -145 20t-113 65.5t-76 125.5t-26 193v1134h209v-1132q0 -217 151 -217q148 0 148 217v1132h208zM197 1862h235l150 -279h-152z" />
    <glyph glyph-name="Uacute" unicode="&#xda;" horiz-adv-x="946" 
d="M831 1507v-1134q0 -113 -26 -193t-75.5 -125.5t-111.5 -65.5t-143 -20q-82 0 -145 20t-113 65.5t-76 125.5t-26 193v1134h209v-1132q0 -217 151 -217q148 0 148 217v1132h208zM340 1583l149 279h236l-233 -279h-152z" />
    <glyph glyph-name="Ucircumflex" unicode="&#xdb;" horiz-adv-x="946" 
d="M831 1507v-1134q0 -113 -26 -193t-75.5 -125.5t-111.5 -65.5t-143 -20q-82 0 -145 20t-113 65.5t-76 125.5t-26 193v1134h209v-1132q0 -217 151 -217q148 0 148 217v1132h208zM356 1862h209l156 -279h-168l-100 160l-101 -160h-151z" />
    <glyph glyph-name="Udieresis" unicode="&#xdc;" horiz-adv-x="946" 
d="M831 1507v-1134q0 -113 -26 -193t-75.5 -125.5t-111.5 -65.5t-143 -20q-82 0 -145 20t-113 65.5t-76 125.5t-26 193v1134h209v-1132q0 -217 151 -217q148 0 148 217v1132h208zM166 1726q0 51 36 87t87 36t87 -36t36 -87t-36 -86.5t-87 -35.5t-87 35.5t-36 86.5zM510 1726
q0 51 36 87t87 36t87 -36t36 -87t-36 -86.5t-87 -35.5t-87 35.5t-36 86.5z" />
    <glyph glyph-name="Yacute" unicode="&#xdd;" horiz-adv-x="833" 
d="M41 1507h219l164 -628h4l156 628h209l-267 -899v-608h-209v608zM297 1583l149 279h236l-233 -279h-152z" />
    <glyph glyph-name="Thorn" unicode="&#xde;" horiz-adv-x="833" 
d="M115 0v1507h209v-243q452 0 452 -467q0 -217 -106 -344t-312 -127h-34v-326h-209zM324 1085v-581q233 0 233 297q0 135 -57.5 209.5t-175.5 74.5z" />
    <glyph glyph-name="germandbls" unicode="&#xdf;" horiz-adv-x="833" 
d="M109 0v1174q0 73 16.5 134.5t50 111.5t90.5 78t133 28q159 0 238.5 -101t79.5 -270q0 -131 -38 -205.5t-132 -99.5v-4q57 -10 98 -37t65 -63t37.5 -88.5t18 -103t4.5 -116.5q0 -76 -15 -150.5t-47 -146t-93 -115.5t-142 -44q-23 0 -51 8l-33 188q13 -8 39 -8
q48 0 79.5 44.5t42.5 101t11 120.5q0 75 -7.5 127.5t-26.5 97t-56 67.5t-92 24v168q139 0 139 200q0 72 -8 119t-24 70t-34 31t-46 8q-48 0 -73.5 -39t-25.5 -105v-1204h-198z" />
    <glyph glyph-name="agrave" unicode="&#xe0;" horiz-adv-x="796" 
d="M702 0h-188v162h-4q-42 -96 -97 -138t-132 -42q-27 0 -53.5 6t-59 26.5t-56.5 53t-40.5 91t-16.5 134.5q0 215 89 302t296 87h74v141q0 129 -125 129q-60 0 -89.5 -33t-37.5 -106l-176 49q40 258 313 258q303 0 303 -289v-831zM254 317q0 -82 22.5 -124.5t83.5 -42.5
q55 0 104.5 61.5t49.5 173.5v145h-51q-67 0 -111.5 -17.5t-64 -50.5t-26.5 -66t-7 -79zM135 1507h236l149 -278h-151z" />
    <glyph glyph-name="aacute" unicode="&#xe1;" horiz-adv-x="796" 
d="M702 0h-188v162h-4q-42 -96 -97 -138t-132 -42q-27 0 -53.5 6t-59 26.5t-56.5 53t-40.5 91t-16.5 134.5q0 215 89 302t296 87h74v141q0 129 -125 129q-60 0 -89.5 -33t-37.5 -106l-176 49q40 258 313 258q303 0 303 -289v-831zM254 317q0 -82 22.5 -124.5t83.5 -42.5
q55 0 104.5 61.5t49.5 173.5v145h-51q-67 0 -111.5 -17.5t-64 -50.5t-26.5 -66t-7 -79zM279 1229l149 278h236l-234 -278h-151z" />
    <glyph glyph-name="acircumflex" unicode="&#xe2;" horiz-adv-x="796" 
d="M702 0h-188v162h-4q-42 -96 -97 -138t-132 -42q-27 0 -53.5 6t-59 26.5t-56.5 53t-40.5 91t-16.5 134.5q0 215 89 302t296 87h74v141q0 129 -125 129q-60 0 -89.5 -33t-37.5 -106l-176 49q40 258 313 258q303 0 303 -289v-831zM254 317q0 -82 22.5 -124.5t83.5 -42.5
q55 0 104.5 61.5t49.5 173.5v145h-51q-67 0 -111.5 -17.5t-64 -50.5t-26.5 -66t-7 -79zM295 1507h209l155 -278h-167l-101 160l-100 -160h-152z" />
    <glyph glyph-name="atilde" unicode="&#xe3;" horiz-adv-x="796" 
d="M702 0h-188v162h-4q-42 -96 -97 -138t-132 -42q-27 0 -53.5 6t-59 26.5t-56.5 53t-40.5 91t-16.5 134.5q0 215 89 302t296 87h74v141q0 129 -125 129q-60 0 -89.5 -33t-37.5 -106l-176 49q40 258 313 258q303 0 303 -289v-831zM254 317q0 -82 22.5 -124.5t83.5 -42.5
q55 0 104.5 61.5t49.5 173.5v145h-51q-67 0 -111.5 -17.5t-64 -50.5t-26.5 -66t-7 -79zM580 1468h96q0 -88 -49.5 -153.5t-126.5 -65.5q-36 0 -119 39q-61 29 -94 29q-27 0 -43.5 -14.5t-24.5 -53.5h-96q8 94 37 142q42 65 125 65q43 0 129 -31q71 -24 96 -24q53 0 70 67z
" />
    <glyph glyph-name="adieresis" unicode="&#xe4;" horiz-adv-x="796" 
d="M702 0h-188v162h-4q-42 -96 -97 -138t-132 -42q-27 0 -53.5 6t-59 26.5t-56.5 53t-40.5 91t-16.5 134.5q0 215 89 302t296 87h74v141q0 129 -125 129q-60 0 -89.5 -33t-37.5 -106l-176 49q40 258 313 258q303 0 303 -289v-831zM254 317q0 -82 22.5 -124.5t83.5 -42.5
q55 0 104.5 61.5t49.5 173.5v145h-51q-67 0 -111.5 -17.5t-64 -50.5t-26.5 -66t-7 -79zM104 1372q0 51 36 87t87 36t87 -36t36 -87t-36 -87t-87 -36t-87 36t-36 87zM449 1372q0 51 35.5 87t86.5 36t87 -36t36 -87t-36 -87t-87 -36t-86.5 36t-35.5 87z" />
    <glyph glyph-name="aring" unicode="&#xe5;" horiz-adv-x="796" 
d="M702 0h-188v162h-4q-42 -96 -97 -138t-132 -42q-27 0 -53.5 6t-59 26.5t-56.5 53t-40.5 91t-16.5 134.5q0 215 89 302t296 87h74v141q0 129 -125 129q-60 0 -89.5 -33t-37.5 -106l-176 49q40 258 313 258q303 0 303 -289v-831zM254 317q0 -82 22.5 -124.5t83.5 -42.5
q55 0 104.5 61.5t49.5 173.5v145h-51q-67 0 -111.5 -17.5t-64 -50.5t-26.5 -66t-7 -79zM219 1358q0 75 52.5 127.5t127.5 52.5t128 -52.5t53 -127.5t-53 -127.5t-128 -52.5t-127.5 52.5t-52.5 127.5zM305 1358q0 -38 28 -66t66 -28t66.5 28t28.5 66t-28.5 66t-66.5 28
t-66 -28t-28 -66z" />
    <glyph glyph-name="ae" unicode="&#xe6;" horiz-adv-x="1138" 
d="M487 334v196q-134 0 -191.5 -45.5t-57.5 -165.5q0 -43 9.5 -79t37.5 -63t71 -27q56 0 93.5 60t37.5 124zM666 682h235q-1 48 -3.5 80t-10 71.5t-19.5 63t-34 39.5t-52 16q-31 0 -52.5 -16t-33.5 -39t-19 -62.5t-8.5 -71.5t-2.5 -81zM1090 530h-424v-163q0 -217 122 -217
q52 0 79 42.5t34 155.5h178q-7 -72 -23 -131.5t-47.5 -115.5t-86 -87.5t-127.5 -31.5q-100 0 -153.5 51t-80.5 137q-48 -96 -108.5 -142t-151.5 -46q-70 0 -121 27t-78.5 74t-40 99t-12.5 111q0 215 89 302t296 87h53v90q0 180 -116 180q-104 0 -121 -139l-172 49
q41 258 295 258q79 0 138.5 -32.5t82.5 -86.5q42 61 88 90t106 29q144 0 223 -129t79 -360v-101z" />
    <glyph glyph-name="ccedilla" unicode="&#xe7;" horiz-adv-x="720" 
d="M664 821l-189 -41q-2 83 -22 122.5t-68 39.5q-28 0 -46 -14t-34.5 -53.5t-24.5 -120.5t-8 -205q0 -195 27 -292t88 -97q49 0 73.5 42.5t35.5 145.5l178 -61q-22 -154 -90.5 -229.5t-196.5 -75.5q-160 0 -236.5 133t-76.5 417q0 307 77 447.5t244 140.5q55 0 100.5 -18
t75.5 -47t51 -68.5t31 -81t11 -84.5zM346 -309h-151q79 121 88 266h178q-6 -63 -39 -139t-76 -127z" />
    <glyph glyph-name="egrave" unicode="&#xe8;" horiz-adv-x="833" 
d="M285 682h274q0 72 -12 129.5t-44.5 99t-82.5 41.5q-135 0 -135 -270zM748 530h-463q0 -49 1.5 -83.5t5 -77.5t9.5 -72t16 -59t24.5 -47.5t36 -29t48.5 -11.5q43 0 72 33t40 73.5t13 87.5h178q-1 -72 -20 -135.5t-55.5 -115t-96 -81.5t-135.5 -30q-118 0 -190.5 58
t-109 190t-36.5 350q0 275 88 407.5t252 132.5q149 0 235.5 -113.5t86.5 -318.5v-158zM154 1507h235l150 -278h-152z" />
    <glyph glyph-name="eacute" unicode="&#xe9;" horiz-adv-x="833" 
d="M285 682h274q0 72 -12 129.5t-44.5 99t-82.5 41.5q-135 0 -135 -270zM748 530h-463q0 -49 1.5 -83.5t5 -77.5t9.5 -72t16 -59t24.5 -47.5t36 -29t48.5 -11.5q43 0 72 33t40 73.5t13 87.5h178q-1 -72 -20 -135.5t-55.5 -115t-96 -81.5t-135.5 -30q-118 0 -190.5 58
t-109 190t-36.5 350q0 275 88 407.5t252 132.5q149 0 235.5 -113.5t86.5 -318.5v-158zM297 1229l149 278h236l-233 -278h-152z" />
    <glyph glyph-name="ecircumflex" unicode="&#xea;" horiz-adv-x="833" 
d="M285 682h274q0 72 -12 129.5t-44.5 99t-82.5 41.5q-135 0 -135 -270zM748 530h-463q0 -49 1.5 -83.5t5 -77.5t9.5 -72t16 -59t24.5 -47.5t36 -29t48.5 -11.5q43 0 72 33t40 73.5t13 87.5h178q-1 -72 -20 -135.5t-55.5 -115t-96 -81.5t-135.5 -30q-118 0 -190.5 58
t-109 190t-36.5 350q0 275 88 407.5t252 132.5q149 0 235.5 -113.5t86.5 -318.5v-158zM313 1507h209l156 -278h-168l-100 160l-101 -160h-151z" />
    <glyph glyph-name="edieresis" unicode="&#xeb;" horiz-adv-x="833" 
d="M285 682h274q0 72 -12 129.5t-44.5 99t-82.5 41.5q-135 0 -135 -270zM748 530h-463q0 -49 1.5 -83.5t5 -77.5t9.5 -72t16 -59t24.5 -47.5t36 -29t48.5 -11.5q43 0 72 33t40 73.5t13 87.5h178q-1 -72 -20 -135.5t-55.5 -115t-96 -81.5t-135.5 -30q-118 0 -190.5 58
t-109 190t-36.5 350q0 275 88 407.5t252 132.5q149 0 235.5 -113.5t86.5 -318.5v-158zM123 1372q0 51 36 87t87 36t87 -36t36 -87t-36 -87t-87 -36t-87 36t-36 87zM467 1372q0 51 36 87t87 36t87 -36t36 -87t-36 -87t-87 -36t-87 36t-36 87z" />
    <glyph glyph-name="igrave" unicode="&#xec;" horiz-adv-x="415" 
d="M109 0v1102h198v-1102h-198zM-55 1507h235l150 -278h-152z" />
    <glyph glyph-name="iacute" unicode="&#xed;" horiz-adv-x="415" 
d="M109 0v1102h198v-1102h-198zM88 1229l150 278h235l-233 -278h-152z" />
    <glyph glyph-name="icircumflex" unicode="&#xee;" horiz-adv-x="415" 
d="M109 0v1102h198v-1102h-198zM104 1507h209l156 -278h-168l-100 160l-101 -160h-151z" />
    <glyph glyph-name="idieresis" unicode="&#xef;" horiz-adv-x="415" 
d="M109 0v1102h198v-1102h-198zM-86 1372q0 51 36 87t87 36t87 -36t36 -87t-36 -87t-87 -36t-87 36t-36 87zM258 1372q0 51 36 87t87 36t87 -36t36 -87t-36 -87t-87 -36t-87 36t-36 87z" />
    <glyph glyph-name="eth" unicode="&#xf0;" 
d="M283 604q0 -454 135 -454t135 454q0 348 -135 348t-135 -348zM195 1200l-70 88l149 86q-57 51 -124 90l108 113q95 -48 170 -113l158 88l69 -88l-145 -84q113 -125 182.5 -312.5t69.5 -412.5q0 -345 -77.5 -509t-266.5 -164q-94 0 -162.5 43.5t-107.5 123.5t-56.5 179
t-17.5 223q0 261 80 415t233 154q62 0 113 -51l4 4q-52 116 -146 221z" />
    <glyph glyph-name="ntilde" unicode="&#xf1;" horiz-adv-x="833" 
d="M109 0v1102h188v-150h4q36 90 89.5 129t129.5 39q84 0 144.5 -69t60.5 -174v-877h-199v797q0 63 -27 99t-69 36q-57 0 -90 -46t-33 -110v-776h-198zM598 1468h96q0 -88 -49.5 -153.5t-126.5 -65.5q-36 0 -119 39q-61 29 -94 29q-27 0 -42.5 -14.5t-24.5 -53.5h-97
q8 94 37 142q42 65 125 65q43 0 129 -31q71 -24 96 -24q53 0 70 67z" />
    <glyph glyph-name="ograve" unicode="&#xf2;" 
d="M418 -18q-94 0 -162.5 43.5t-107.5 123.5t-56.5 179t-17.5 223t17.5 223t56.5 179t107.5 123.5t162.5 43.5t162.5 -43.5t107.5 -123.5t56.5 -179t17.5 -223t-17.5 -223t-56.5 -179t-107.5 -123.5t-162.5 -43.5zM418 150q135 0 135 454q0 348 -135 348t-135 -348
q0 -454 135 -454zM154 1507h235l150 -278h-152z" />
    <glyph glyph-name="oacute" unicode="&#xf3;" 
d="M418 -18q-94 0 -162.5 43.5t-107.5 123.5t-56.5 179t-17.5 223t17.5 223t56.5 179t107.5 123.5t162.5 43.5t162.5 -43.5t107.5 -123.5t56.5 -179t17.5 -223t-17.5 -223t-56.5 -179t-107.5 -123.5t-162.5 -43.5zM418 150q135 0 135 454q0 348 -135 348t-135 -348
q0 -454 135 -454zM297 1229l149 278h236l-233 -278h-152z" />
    <glyph glyph-name="ocircumflex" unicode="&#xf4;" 
d="M418 -18q-94 0 -162.5 43.5t-107.5 123.5t-56.5 179t-17.5 223t17.5 223t56.5 179t107.5 123.5t162.5 43.5t162.5 -43.5t107.5 -123.5t56.5 -179t17.5 -223t-17.5 -223t-56.5 -179t-107.5 -123.5t-162.5 -43.5zM418 150q135 0 135 454q0 348 -135 348t-135 -348
q0 -454 135 -454zM313 1507h209l156 -278h-168l-100 160l-101 -160h-151z" />
    <glyph glyph-name="otilde" unicode="&#xf5;" 
d="M418 -18q-94 0 -162.5 43.5t-107.5 123.5t-56.5 179t-17.5 223t17.5 223t56.5 179t107.5 123.5t162.5 43.5t162.5 -43.5t107.5 -123.5t56.5 -179t17.5 -223t-17.5 -223t-56.5 -179t-107.5 -123.5t-162.5 -43.5zM418 150q135 0 135 454q0 348 -135 348t-135 -348
q0 -454 135 -454zM598 1468h96q0 -88 -49.5 -153.5t-126.5 -65.5q-36 0 -119 39q-61 29 -94 29q-27 0 -42.5 -14.5t-24.5 -53.5h-97q8 94 37 142q42 65 125 65q43 0 129 -31q71 -24 96 -24q53 0 70 67z" />
    <glyph glyph-name="odieresis" unicode="&#xf6;" 
d="M418 -18q-94 0 -162.5 43.5t-107.5 123.5t-56.5 179t-17.5 223t17.5 223t56.5 179t107.5 123.5t162.5 43.5t162.5 -43.5t107.5 -123.5t56.5 -179t17.5 -223t-17.5 -223t-56.5 -179t-107.5 -123.5t-162.5 -43.5zM418 150q135 0 135 454q0 348 -135 348t-135 -348
q0 -454 135 -454zM123 1372q0 51 36 87t87 36t87 -36t36 -87t-36 -87t-87 -36t-87 36t-36 87zM467 1372q0 51 36 87t87 36t87 -36t36 -87t-36 -87t-87 -36t-87 36t-36 87z" />
    <glyph glyph-name="divide" unicode="&#xf7;" horiz-adv-x="1228" 
d="M1133 442h-1037v152h1037v-152zM475 94q0 58 40.5 98.5t98.5 40.5q59 0 99.5 -40.5t40.5 -98.5t-40.5 -98.5t-99.5 -40.5q-58 0 -98.5 40.5t-40.5 98.5zM475 942q0 58 40.5 98.5t98.5 40.5q59 0 99.5 -40.5t40.5 -98.5t-40.5 -98.5t-99.5 -40.5q-58 0 -98.5 40.5
t-40.5 98.5z" />
    <glyph glyph-name="oslash" unicode="&#xf8;" 
d="M547 694l-230 -426q29 -118 101 -118q135 0 135 454q0 63 -2 90h-4zM293 414l231 430q-28 108 -106 108q-135 0 -135 -348q0 -108 6 -190h4zM63 0l84 152q-73 138 -73 399q0 124 17.5 223t56.5 179t107.5 123.5t162.5 43.5q131 0 211 -86l61 113l82 -45l-84 -152
q74 -142 74 -399q0 -124 -17.5 -223t-56.5 -179t-107.5 -123.5t-162.5 -43.5q-131 0 -211 86l-62 -113z" />
    <glyph glyph-name="ugrave" unicode="&#xf9;" horiz-adv-x="833" 
d="M725 1102v-1102h-188v150h-5q-36 -90 -89.5 -129t-129.5 -39q-84 0 -144 69t-60 174v877h198v-797q0 -63 27 -99t69 -36q57 0 90 46t33 110v776h199zM141 1507h236l149 -278h-151z" />
    <glyph glyph-name="uacute" unicode="&#xfa;" horiz-adv-x="833" 
d="M725 1102v-1102h-188v150h-5q-36 -90 -89.5 -129t-129.5 -39q-84 0 -144 69t-60 174v877h198v-797q0 -63 27 -99t69 -36q57 0 90 46t33 110v776h199zM285 1229l149 278h236l-234 -278h-151z" />
    <glyph glyph-name="ucircumflex" unicode="&#xfb;" horiz-adv-x="833" 
d="M725 1102v-1102h-188v150h-5q-36 -90 -89.5 -129t-129.5 -39q-84 0 -144 69t-60 174v877h198v-797q0 -63 27 -99t69 -36q57 0 90 46t33 110v776h199zM301 1507h209l156 -278h-168l-101 160l-100 -160h-152z" />
    <glyph glyph-name="udieresis" unicode="&#xfc;" horiz-adv-x="833" 
d="M725 1102v-1102h-188v150h-5q-36 -90 -89.5 -129t-129.5 -39q-84 0 -144 69t-60 174v877h198v-797q0 -63 27 -99t69 -36q57 0 90 46t33 110v776h199zM111 1372q0 51 35.5 87t86.5 36t87 -36t36 -87t-36 -87t-87 -36t-86.5 36t-35.5 87zM455 1372q0 51 36 87t87 36
t86.5 -36t35.5 -87t-35.5 -87t-86.5 -36t-87 36t-36 87z" />
    <glyph glyph-name="yacute" unicode="&#xfd;" horiz-adv-x="720" 
d="M481 1102h199l-307 -1493h-199l98 442l-231 1051h199l133 -723h4zM240 1229l149 278h236l-234 -278h-151z" />
    <glyph glyph-name="thorn" unicode="&#xfe;" 
d="M297 551q0 -391 129 -391q127 0 127 391t-127 391q-129 0 -129 -391zM109 -391v1898h188v-577h4q35 102 84 146t127 44q250 0 250 -567q0 -270 -65 -420.5t-191 -150.5q-79 0 -127.5 49.5t-77.5 148.5l-4 2v-573h-188z" />
    <glyph glyph-name="ydieresis" unicode="&#xff;" horiz-adv-x="720" 
d="M481 1102h199l-307 -1493h-199l98 442l-231 1051h199l133 -723h4zM66 1372q0 51 35.5 87t86.5 36t87 -36t36 -87t-36 -87t-87 -36t-86.5 36t-35.5 87zM410 1372q0 51 35.5 87t86.5 36t87 -36t36 -87t-36 -87t-87 -36t-86.5 36t-35.5 87z" />
    <glyph glyph-name="dotlessi" unicode="&#x131;" horiz-adv-x="415" 
d="M109 0v1102h198v-1102h-198z" />
    <glyph glyph-name="Lslash" unicode="&#x141;" horiz-adv-x="720" 
d="M141 0v569l-141 -114v209l141 114v729h209v-557l232 189v-209l-232 -189v-553h336v-188h-545z" />
    <glyph glyph-name="lslash" unicode="&#x142;" horiz-adv-x="454" 
d="M109 801v706h198v-534l150 129v-189l-150 -129v-481q0 -67 30 -100t99 -33h21v-188h-74q-131 0 -202.5 65t-71.5 213v352l-121 -104v188z" />
    <glyph glyph-name="OE" unicode="&#x152;" horiz-adv-x="1290" 
d="M844 889h370v-178h-370v-533h370v-178h-522q-45 0 -110 -14q-74 -17 -107 -17q-76 0 -136 24t-101.5 63t-71.5 100.5t-47 124.5t-27 148t-13 158t-3 167t5 175t17.5 162t32 146.5t50.5 122.5t72 95.5t97.5 60.5t124.5 22q55 0 133 -16q73 -15 140 -15h466v-178h-370v-440
zM645 754q0 115 -2 191.5t-7.5 149.5t-16.5 116t-28.5 77t-43 48t-60.5 14q-65 0 -106 -55.5t-63.5 -189t-22.5 -351.5t22.5 -351.5t63.5 -189t106 -55.5q35 0 60.5 14t43 48t28.5 77t16.5 116t7.5 149.5t2 191.5z" />
    <glyph glyph-name="oe" unicode="&#x153;" horiz-adv-x="1175" 
d="M395 150q67 0 92 92t25 305q0 38 -0.5 64.5t-2 66.5t-5 69t-9 63t-14.5 57t-21 44t-29 31t-38 10q-133 0 -133 -381q0 -421 135 -421zM690 682h236q-1 48 -3.5 80t-10 71.5t-19.5 63t-34 39.5t-52 16q-31 0 -53 -16t-33.5 -39t-18.5 -62.5t-9 -72t-3 -80.5zM1114 530
h-424v-163q0 -217 123 -217q52 0 79 42.5t34 155.5h178q-5 -56 -16 -105t-32.5 -98.5t-52 -84t-78 -56.5t-106.5 -22q-89 0 -142.5 44t-76.5 113q-33 -81 -83 -119t-132 -38q-62 0 -113 25.5t-84 65t-57.5 96t-37.5 109.5t-20.5 114.5t-9.5 101t-2 79.5q0 159 36 281
t110 194t178 72q75 0 130.5 -44t82.5 -118h4q24 76 81.5 119t129.5 43q144 0 222.5 -129t78.5 -360v-101z" />
    <glyph glyph-name="Scaron" unicode="&#x160;" horiz-adv-x="833" 
d="M754 1208l-189 -67q-15 209 -151 209q-59 0 -95 -46t-36 -112q0 -131 141 -268l170 -166q104 -101 145 -195t41 -217q0 -163 -95 -270t-267 -107q-155 0 -250.5 93.5t-114.5 267.5l199 63q10 -111 52 -178.5t116 -67.5q61 0 106 49.5t45 135.5q0 139 -147 286l-164 162
q-100 100 -143 194t-43 206q0 161 99.5 259.5t236.5 98.5q155 0 247.5 -88t96.5 -242zM522 1583h-209l-155 279h151l101 -160l100 160h168z" />
    <glyph glyph-name="scaron" unicode="&#x161;" horiz-adv-x="720" 
d="M51 195l172 108q2 -62 38.5 -107.5t96.5 -45.5q52 0 82.5 33.5t30.5 76.5q0 87 -123 184l-104 82q-101 79 -141 147t-40 156q0 132 83 211.5t210 79.5q217 0 301 -215l-170 -102q-3 63 -37.5 106t-95.5 43q-47 0 -74.5 -27.5t-27.5 -72.5q0 -38 25 -73t98 -91l125 -96
q92 -72 131 -147t39 -162q0 -127 -84.5 -214t-231.5 -87q-111 0 -184.5 50.5t-118.5 162.5zM465 1229h-209l-156 278h152l100 -159l101 159h168z" />
    <glyph glyph-name="Ydieresis" unicode="&#x178;" horiz-adv-x="833" 
d="M41 1507h219l164 -628h4l156 628h209l-267 -899v-608h-209v608zM123 1726q0 51 36 87t87 36t87 -36t36 -87t-36 -86.5t-87 -35.5t-87 35.5t-36 86.5zM467 1726q0 51 36 87t87 36t87 -36t36 -87t-36 -86.5t-87 -35.5t-87 35.5t-36 86.5z" />
    <glyph glyph-name="Zcaron" unicode="&#x17d;" horiz-adv-x="833" 
d="M88 1507h705l-471 -1329h432v-178h-713l473 1329h-426v178zM535 1583h-209l-156 279h152l100 -160l100 160h168z" />
    <glyph glyph-name="zcaron" unicode="&#x17e;" horiz-adv-x="720" 
d="M57 25l351 899h-355v178h611v-25l-347 -889h351v-188h-611v25zM465 1229h-209l-156 278h152l100 -159l101 159h168z" />
    <glyph glyph-name="florin" unicode="&#x192;" 
d="M160 686l18 107h172l39 362q18 166 81 237.5t208 71.5q68 0 104 -8l-18 -184q-24 4 -47 4q-65 0 -93 -37.5t-36 -110.5l-39 -335h186l-18 -107h-176l-105 -848q-13 -118 -83 -179.5t-189 -61.5q-53 0 -111 8l27 188q20 -8 41 -8q55 0 83 19t34 69l104 813h-182z" />
    <glyph glyph-name="circumflex" unicode="&#x2c6;" horiz-adv-x="417" 
d="M104 1507h209l156 -278h-168l-100 160l-101 -160h-151z" />
    <glyph glyph-name="caron" unicode="&#x2c7;" horiz-adv-x="417" 
d="M313 1229h-209l-155 278h151l101 -159l100 159h168z" />
    <glyph glyph-name="uni02C9" unicode="&#x2c9;" horiz-adv-x="417" 
d="M-68 1401h553v-139h-553v139z" />
    <glyph glyph-name="breve" unicode="&#x2d8;" horiz-adv-x="417" 
d="M-37 1507h86q22 -73 59 -106t101 -33t101 33t59 106h86q-1 -69 -28 -131t-84.5 -104.5t-133.5 -42.5t-133.5 42.5t-84.5 104.5t-28 131z" />
    <glyph glyph-name="dotaccent" unicode="&#x2d9;" horiz-adv-x="417" 
d="M86 1372q0 51 36 87t87 36t87 -36t36 -87t-36 -87t-87 -36t-87 36t-36 87z" />
    <glyph glyph-name="ring" unicode="&#x2da;" horiz-adv-x="417" 
d="M29 1358q0 75 52.5 127.5t127.5 52.5t127.5 -52.5t52.5 -127.5t-52.5 -127.5t-127.5 -52.5t-127.5 52.5t-52.5 127.5zM115 1358q0 -38 28 -66t66 -28t66 28t28 66t-28 66t-66 28t-66 -28t-28 -66z" />
    <glyph glyph-name="ogonek" unicode="&#x2db;" horiz-adv-x="417" 
d="M500 -231l41 -129q-78 -43 -156 -43q-77 0 -120.5 39t-43.5 108q0 77 47 174l62 129h168v-41l-58 -125q-30 -65 -30 -88q0 -20 11 -32.5t30 -12.5q25 0 49 21z" />
    <glyph glyph-name="tilde" unicode="&#x2dc;" horiz-adv-x="417" 
d="M389 1468h96q0 -88 -49.5 -153.5t-126.5 -65.5q-36 0 -119 39q-61 29 -94 29q-27 0 -42.5 -14.5t-24.5 -53.5h-97q8 94 37 142q42 65 125 65q43 0 129 -31q71 -24 96 -24q53 0 70 67z" />
    <glyph glyph-name="hungarumlaut" unicode="&#x2dd;" horiz-adv-x="417" 
d="M-84 1229l150 278h235l-233 -278h-152zM260 1229l150 278h235l-233 -278h-152z" />
    <glyph glyph-name="uni03A9" unicode="&#x3a9;" horiz-adv-x="1040" 
d="M262 170v6q-80 115 -131 275t-51 344q0 190 55.5 340.5t157.5 235.5t233 85q103 0 186.5 -55t135 -147t79 -206t27.5 -237q0 -189 -53.5 -358t-130.5 -277v-6h207v-170h-381v123q69 76 117.5 244.5t48.5 392.5q0 99 -14.5 189.5t-42.5 165t-76 119t-109 44.5
q-116 0 -183 -145t-67 -377q0 -211 50 -385.5t118 -247.5v-123h-381v170h205z" />
    <glyph glyph-name="uni03BC" unicode="&#x3bc;" horiz-adv-x="833" 
d="M725 1102v-1102h-188v150h-5q-37 -93 -92 -131.5t-133 -36.5v-373h-198v1493h198v-797q0 -63 27 -99t69 -36q57 0 90 46t33 110v776h199z" />
    <glyph glyph-name="pi" unicode="&#x3c0;" horiz-adv-x="923" 
d="M881 895h-109v-623q0 -178 23 -272h-181q-28 67 -28 270v625h-217q-7 -201 -36 -466.5t-71 -428.5h-178q42 177 69.5 437.5t30.5 457.5q-99 0 -145 -16l-23 137q72 61 248 61h631z" />
    <glyph glyph-name="uni2010" unicode="&#x2010;" horiz-adv-x="606" 
d="M104 670h398v-178h-398v178z" />
    <glyph glyph-name="endash" unicode="&#x2013;" horiz-adv-x="1024" 
d="M0 664h1024v-168h-1024v168z" />
    <glyph glyph-name="emdash" unicode="&#x2014;" horiz-adv-x="2048" 
d="M0 496v168h2048v-168h-2048z" />
    <glyph glyph-name="quoteleft" unicode="&#x2018;" horiz-adv-x="491" 
d="M254 1507h152l-121 -417h-199z" />
    <glyph glyph-name="quoteright" unicode="&#x2019;" horiz-adv-x="491" 
d="M238 1090h-152l121 417h199z" />
    <glyph glyph-name="quotesinglbase" unicode="&#x201a;" horiz-adv-x="491" 
d="M238 -158h-152l121 418h199z" />
    <glyph glyph-name="quotedblleft" unicode="&#x201c;" horiz-adv-x="720" 
d="M535 1507h151l-123 -417h-198zM205 1507h151l-123 -417h-198z" />
    <glyph glyph-name="quotedblright" unicode="&#x201d;" horiz-adv-x="720" 
d="M186 1090h-151l123 417h198zM516 1090h-151l122 417h199z" />
    <glyph glyph-name="quotedblbase" unicode="&#x201e;" horiz-adv-x="720" 
d="M186 -158h-151l123 418h198zM516 -158h-151l122 418h199z" />
    <glyph glyph-name="dagger" unicode="&#x2020;" horiz-adv-x="833" 
d="M59 911v179h258v417h199v-417h258v-179h-258v-1093h-199v1093h-258z" />
    <glyph glyph-name="daggerdbl" unicode="&#x2021;" horiz-adv-x="833" 
d="M317 1155v352h199v-352h258v-178h-258v-629h258v-178h-258v-352h-199v352h-258v178h258v629h-258v178h258z" />
    <glyph glyph-name="bullet" unicode="&#x2022;" horiz-adv-x="1024" 
d="M135 754q0 157 110 266.5t267 109.5t267 -109.5t110 -266.5t-110 -267t-267 -110t-267 110t-110 267z" />
    <glyph glyph-name="ellipsis" unicode="&#x2026;" horiz-adv-x="2048" 
d="M219 111q0 51 36 86.5t87 35.5t87 -35.5t36 -86.5t-36 -87t-87 -36t-87 36t-36 87zM901 111q0 51 36 86.5t87 35.5t87 -35.5t36 -86.5t-36 -87t-87 -36t-87 36t-36 87zM1583 111q0 51 36 86.5t87 35.5t87 -35.5t36 -86.5t-36 -87t-87 -36t-87 36t-36 87z" />
    <glyph glyph-name="perthousand" unicode="&#x2030;" horiz-adv-x="2048" 
d="M928 322q0 -101 23.5 -154t84.5 -53t85 53t24 154q0 100 -24 153t-85 53t-84.5 -52.5t-23.5 -153.5zM750 328q0 91 23.5 160.5t64 110.5t90.5 61t108 20q123 0 205 -87.5t82 -264.5q0 -92 -23.5 -162t-64 -110.5t-91 -60.5t-108.5 -20q-123 0 -204.5 87t-81.5 266z
M31 1112q0 91 23.5 160.5t64 110.5t90.5 61t108 20q123 0 205 -87.5t82 -264.5q0 -92 -23.5 -161.5t-64 -110t-91 -60.5t-108.5 -20t-108 20t-91 60.5t-64 110t-23 161.5zM209 1106q0 -101 23.5 -154t84.5 -53t85 53t24 154t-24 154t-85 53t-84.5 -53t-23.5 -154zM1622 322
q0 -101 24 -154t85 -53t84.5 53t23.5 154t-23.5 153.5t-84.5 52.5t-85 -53t-24 -153zM1444 328q0 177 82 264.5t205 87.5q58 0 108 -20t90.5 -61t64 -110.5t23.5 -160.5q0 -179 -81.5 -266t-204.5 -87q-58 0 -108.5 20t-91 60.5t-64 110.5t-23.5 162zM1059 1481h131
l-883 -1522h-131z" />
    <glyph glyph-name="guilsinglleft" unicode="&#x2039;" horiz-adv-x="493" 
d="M53 573l189 318h198l-198 -318l198 -305h-198z" />
    <glyph glyph-name="guilsinglright" unicode="&#x203a;" horiz-adv-x="493" 
d="M252 268h-199l199 318l-199 305h199l188 -305z" />
    <glyph glyph-name="fraction" unicode="&#x2044;" horiz-adv-x="342" 
d="M547 1481h131l-883 -1522h-131z" />
    <glyph glyph-name="Euro" unicode="&#x20ac;" 
d="M766 1407v-188q-58 61 -184 61q-203 0 -224 -334h353l-43 -153h-320q-2 -20 -2 -70q0 -52 2 -72h281l-41 -153h-230q23 -342 224 -342q120 0 184 61v-192q-56 -48 -219 -48q-165 0 -261 124.5t-122 396.5h-127l41 153h72q-3 27 -3 72q0 35 3 70h-113l41 153h84
q47 516 385 516q76 0 134 -16.5t85 -38.5z" />
    <glyph glyph-name="afii61289" unicode="&#x2113;" horiz-adv-x="786" 
d="M684 305l76 -80q-106 -241 -303 -241q-63 0 -112 19t-81.5 52t-53.5 80.5t-30 100.5t-10 116q3 16 0 29q-12 -12 -41 -40t-43 -42l-47 109q12 12 35 35.5t35.5 36.5t29.5 32.5t31 36.5v549q0 241 80 361t199 120q99 0 150.5 -90.5t51.5 -247.5q0 -327 -297 -706v-111
q0 -283 142 -283q100 0 188 164zM354 1069v-334q191 286 191 520q0 87 -21 129.5t-69 42.5q-20 0 -37.5 -18t-32 -57.5t-23 -111.5t-8.5 -171z" />
    <glyph glyph-name="trademark" unicode="&#x2122;" horiz-adv-x="2027" 
d="M1659 664v692h-4l-264 -692h-103l-264 692h-4v-692h-152v843h232l241 -620l238 620h231v-843h-151zM313 664v725h-260v118h672v-118h-260v-725h-152z" />
    <glyph glyph-name="Omega" unicode="&#x2126;" horiz-adv-x="1040" 
d="M262 170v6q-80 115 -131 275t-51 344q0 190 55.5 340.5t157.5 235.5t233 85q103 0 186.5 -55t135 -147t79 -206t27.5 -237q0 -189 -53.5 -358t-130.5 -277v-6h207v-170h-381v123q69 76 117.5 244.5t48.5 392.5q0 99 -14.5 189.5t-42.5 165t-76 119t-109 44.5
q-116 0 -183 -145t-67 -377q0 -211 50 -385.5t118 -247.5v-123h-381v170h205z" />
    <glyph glyph-name="estimated" unicode="&#x212e;" horiz-adv-x="1794" 
d="M1724 698h-1339q-12 0 -12 -8v-405q0 -23 18 -45q100 -104 230 -163t276 -59q158 0 296 65.5t239 180.5h118q-112 -133 -285 -210t-370 -77q-168 0 -320.5 58.5t-263 158t-176 237t-65.5 288.5q0 152 65.5 290t176 237.5t263 158.5t320.5 59q169 0 322.5 -59
t264.5 -158.5t176.5 -237.5t65.5 -290v-21zM1419 752v407q0 29 -20 49q-100 99 -229.5 155t-272.5 56t-274 -58t-230 -159q-20 -23 -20 -51v-399q0 -4 3.5 -8.5t8.5 -4.5h1026q8 0 8 13z" />
    <glyph glyph-name="partialdiff" unicode="&#x2202;" horiz-adv-x="894" 
d="M170 1354l-51 162q115 106 272 106q65 0 124 -26t114 -85t94.5 -146t63.5 -218.5t24 -292.5q0 -420 -111 -643t-317 -223q-98 0 -170.5 65.5t-107.5 171t-35 234.5q0 124 29 228t77.5 171.5t110.5 105t129 37.5q76 0 129.5 -39t79.5 -88h2v66q0 135 -32 250.5t-92 186.5
t-136 71q-103 0 -197 -94zM399 164h4q58 0 104.5 76t72 190t32.5 248q-15 61 -59 107t-107 46q-82 0 -136 -114t-54 -268q0 -130 38 -207.5t105 -77.5z" />
    <glyph glyph-name="uni2206" unicode="&#x2206;" horiz-adv-x="999" 
d="M49 0v125l350 1341h217l334 -1337v-129h-901zM236 166h524l-168 649q-11 54 -45 187.5t-43 185.5h-4q-7 -46 -39.5 -168t-44.5 -180z" />
    <glyph glyph-name="product" unicode="&#x220f;" horiz-adv-x="1122" 
d="M1073 1247h-149v-1446h-189v1446h-348v-1446h-190v1446h-148v191h1024v-191z" />
    <glyph glyph-name="summation" unicode="&#x2211;" horiz-adv-x="866" 
d="M831 -199h-788v142l389 680l-377 667v148h750v-172h-506v-6l342 -596l-383 -660v-4h573v-199z" />
    <glyph glyph-name="minus" unicode="&#x2212;" horiz-adv-x="1228" 
d="M1133 442h-1037v152h1037v-152z" />
    <glyph glyph-name="uni2215" unicode="&#x2215;" horiz-adv-x="342" 
d="M547 1481h131l-883 -1522h-131z" />
    <glyph glyph-name="uni2219" unicode="&#x2219;" horiz-adv-x="491" 
d="M100 653q0 60 43 103t103 43t102.5 -43t42.5 -103t-42.5 -102.5t-102.5 -42.5t-103 42.5t-43 102.5z" />
    <glyph glyph-name="radical" unicode="&#x221a;" horiz-adv-x="954" 
d="M944 1726l-348 -2013h-154l-235 920l-119 -47l-31 123l271 106l157 -639q30 -183 31 -188l2 -2q2 14 10 82.5t15 111.5l270 1546h131z" />
    <glyph glyph-name="infinity" unicode="&#x221e;" horiz-adv-x="1353" 
d="M1272 598v-2q0 -135 -83 -218t-196 -83q-81 0 -153.5 44.5t-157.5 154.5q-53 -63 -95.5 -102.5t-103.5 -68t-129 -28.5q-111 0 -191.5 83t-80.5 210q0 130 81 213.5t206 83.5q92 0 166.5 -50.5t148.5 -146.5q5 5 23.5 26t25 28t25 26t28 27t28.5 23.5t32.5 22.5t34 17.5
t38.5 15t40 8t45 3.5q117 0 192.5 -79.5t75.5 -207.5zM371 408h2q36 0 69 13t67 44t52.5 51t56.5 66q-73 95 -102 122q-71 68 -154 68q-77 0 -120 -53t-41 -135q0 -74 49 -125t121 -51zM993 772h-2q-26 0 -53.5 -10t-46 -21t-45.5 -36.5t-37.5 -36.5t-36.5 -42t-29 -34
q86 -106 136.5 -145t117.5 -39q71 0 114.5 55.5t43.5 122.5q0 83 -45 134.5t-117 51.5z" />
    <glyph glyph-name="integral" unicode="&#x222b;" horiz-adv-x="679" 
d="M623 1749l-23 -147q-28 14 -53 14q-51 0 -80 -51q-27 -40 -37 -123t-10 -232q0 -163 10 -495t10 -514q0 -292 -63 -418q-30 -65 -86.5 -96t-122.5 -31q-76 0 -117 29l27 151q37 -16 65 -16q47 0 72 43q41 71 41 332q0 183 -10 523t-10 509q0 178 22 281.5t74 170.5
q33 42 85 66t107 24q54 0 99 -20z" />
    <glyph glyph-name="approxequal" unicode="&#x2248;" horiz-adv-x="884" 
d="M748 870l71 -57q-33 -84 -89.5 -137t-127.5 -53q-44 0 -83 15.5t-97 53.5q-35 25 -50.5 34.5t-41 19.5t-49.5 10q-26 0 -47 -9.5t-39 -31.5t-29 -39.5t-29 -50.5l-74 57q35 85 95.5 136.5t134.5 51.5q20 0 40 -4t33.5 -8t32 -13.5t26 -13.5t25 -15.5t19.5 -12.5
q6 -4 22.5 -14.5l22 -14t18.5 -11t20 -10.5t18 -7t20 -5.5t18 -1.5q43 0 73.5 32t66.5 99zM748 553l71 -59q-33 -83 -89.5 -136t-127.5 -53q-44 0 -81.5 15.5t-98.5 54.5q-34 24 -50.5 34t-41 19.5t-47.5 9.5q-26 0 -47.5 -10t-40.5 -32.5t-29 -39.5t-29 -51l-74 57
q35 86 95.5 137.5t134.5 51.5q20 0 40 -3.5t34 -8t32.5 -13.5t25.5 -13t24.5 -15.5t19.5 -12.5q5 -3 17.5 -11t17 -11t15.5 -9.5t16 -9t14.5 -7.5t15 -6.5t13.5 -4t15.5 -3.5t14.5 -1q43 0 73.5 32t66.5 99z" />
    <glyph glyph-name="notequal" unicode="&#x2260;" horiz-adv-x="884" 
d="M647 979l-63 -156h219v-121h-258l-101 -241h359v-119h-400l-77 -190l-90 34l63 156h-219v119h260l98 241h-358v121h399l78 189z" />
    <glyph glyph-name="lessequal" unicode="&#x2264;" horiz-adv-x="884" 
d="M797 221l-707 408v129l707 409v-147l-594 -322v-6l594 -323v-148zM805 23h-721v127h721v-127z" />
    <glyph glyph-name="greaterequal" unicode="&#x2265;" horiz-adv-x="884" 
d="M94 1167l707 -409v-127l-707 -410v148l594 323v4l-594 324v147zM805 23h-719v127h719v-127z" />
    <glyph glyph-name="lozenge" unicode="&#x25ca;" horiz-adv-x="952" 
d="M864 719l-315 -799h-160l-301 799l315 799h160zM692 713l-178 487q-19 55 -31 135h-8q-11 -70 -31 -135l-184 -477l180 -496q21 -68 29 -129h8q17 87 29 125z" />
    <glyph glyph-name="fi" unicode="&#xfb01;" horiz-adv-x="948" 
d="M602 0v1102h199v-1102h-199zM573 1356q0 52 37.5 89.5t89.5 37.5q54 0 91.5 -37t37.5 -90q0 -54 -37.5 -91.5t-91.5 -37.5q-53 0 -90 37.5t-37 91.5zM147 0v924h-106v178h106v164q0 66 8 110t30.5 80t65 53t107.5 17q58 0 95 -6v-189q-12 6 -37 6q-31 0 -50.5 -21.5
t-19.5 -64.5v-149h107v-178h-107v-924h-199z" />
    <glyph glyph-name="fl" unicode="&#xfb02;" horiz-adv-x="948" 
d="M602 260v1247h199v-1204q0 -67 30 -100t99 -33h20v-188h-73q-131 0 -203 65t-72 213zM147 0v924h-106v178h106v164q0 66 8 110t30.5 80t65 53t107.5 17q58 0 95 -6v-189q-12 6 -37 6q-31 0 -50.5 -21.5t-19.5 -64.5v-149h107v-178h-107v-924h-199z" />
    <glyph glyph-name="one.superior" horiz-adv-x="499" 
d="M190 586v671q-17 -18 -55.5 -39.5t-66.5 -29.5v133q127 59 225 143h49v-878h-152z" />
    <glyph glyph-name="two.superior" horiz-adv-x="542" 
d="M264 715h234v-129h-471l213 385q112 201 112 272q0 38 -20 65t-51 27q-45 0 -65.5 -38t-25.5 -115h-167q0 64 12 113t39.5 88.5t78.5 60t123 20.5q120 0 182 -62t62 -147q0 -71 -44 -167t-130 -238z" />
    <glyph glyph-name="three.superior" horiz-adv-x="542" 
d="M82 1055l186 280h-213v129h449v-16l-213 -315h4q10 4 41 4q174 0 174 -285q0 -129 -65 -206t-183 -77q-229 0 -229 269h151q0 -140 84 -140q90 0 90 166q0 75 -26.5 120.5t-79.5 45.5q-43 0 -76 -41z" />
    <glyph glyph-name="a.superior" horiz-adv-x="518" 
d="M487 793h-139v96l-4 2q-26 -60 -64.5 -85.5t-105.5 -25.5q-22 0 -43.5 7t-45.5 25.5t-39 60t-15 100.5q0 130 57 182.5t191 52.5h69v60q0 78 -92 78q-46 0 -67.5 -20t-26.5 -64l-131 30q14 98 69.5 135t159.5 37q117 0 172 -40.5t55 -131.5v-499zM348 1102h-33
q-81 0 -107 -31t-26 -84q0 -42 14 -65t52 -23q36 0 68 34t32 97v72z" />
    <glyph glyph-name="o.superior" horiz-adv-x="544" 
d="M31 1120q0 344 241 344q242 0 242 -344q0 -340 -242 -340q-241 0 -241 340zM199 1133q0 -125 15 -179.5t58 -54.5q44 0 59 54.5t15 179.5q0 44 -1 71t-5 57.5t-11.5 46.5t-22 27t-34.5 11q-25 0 -40.5 -14t-22.5 -47t-8.5 -64t-1.5 -88z" />
    </font>
</defs>
</svg>
